<?xml version="1.0" encoding="UTF-8"?>
<svg version="1.1" xmlns="http://www.w3.org/2000/svg" width="500" height="500">
<path d="M0 0 C1.27472168 -0.00960754 2.54944336 -0.01921509 3.86279297 -0.02911377 C5.26008933 -0.03396049 6.65738777 -0.03823962 8.0546875 -0.04199219 C9.48193362 -0.04774259 10.90917972 -0.05350033 12.33642578 -0.05926514 C15.32910523 -0.06977305 18.32175782 -0.07561753 21.31445312 -0.07910156 C25.15490925 -0.08459549 28.99501246 -0.10864305 32.83535767 -0.13707352 C35.78296967 -0.15566504 38.73049592 -0.16090354 41.67816162 -0.16243744 C43.09440039 -0.16547084 44.51063742 -0.17352246 45.92681885 -0.18662262 C47.90426669 -0.20361353 49.88185964 -0.1999682 51.859375 -0.1953125 C52.98585449 -0.19895813 54.11233398 -0.20260376 55.27294922 -0.20635986 C56.58803467 -0.02445099 56.58803467 -0.02445099 57.9296875 0.16113281 C60.06555428 3.36493298 60.16100925 4.18053248 60.0546875 7.84863281 C60.03664063 8.656875 60.01859375 9.46511719 60 10.29785156 C59.97679687 10.91273437 59.95359375 11.52761719 59.9296875 12.16113281 C60.7340625 12.30550781 61.5384375 12.44988281 62.3671875 12.59863281 C64.9296875 13.16113281 64.9296875 13.16113281 65.9296875 14.16113281 C66.03986815 16.75316472 66.08465083 19.31912548 66.08790588 21.91212463 C66.09531285 23.14459731 66.09531285 23.14459731 66.10286945 24.40196842 C66.11832258 27.17658682 66.12662609 29.95118195 66.13500977 32.72583008 C66.14458216 34.70625008 66.15459185 36.686668 66.16500854 38.66708374 C66.19213293 44.06146739 66.21310157 49.45585986 66.23301053 54.85027432 C66.25482379 60.48108622 66.2822352 66.11187071 66.30906677 71.74266052 C66.35905689 82.4134432 66.40397219 93.08424104 66.44708914 103.75505346 C66.49640763 115.89996645 66.55134568 128.04485196 66.60676873 140.18973839 C66.72068573 165.18017757 66.8275035 190.1706431 66.9296875 215.16113281 C71.90985998 215.38496509 76.88706097 215.5475238 81.87109375 215.65551758 C83.5630191 215.70056025 85.25459833 215.76182016 86.9453125 215.84008789 C96.81906888 216.57692558 96.81906888 216.57692558 105.76644897 213.24635315 C107.78873961 210.97935057 109.36449004 208.75770735 110.9296875 206.16113281 C111.90486136 204.92743955 112.89394401 203.70438826 113.90625 202.50097656 C114.7920977 201.36923116 115.67494162 200.23512786 116.5546875 199.09863281 C117.25452759 198.204104 117.25452759 198.204104 117.96850586 197.29150391 C120.53707584 193.99819034 123.03724516 190.66542998 125.4921875 187.28613281 C126.2965625 186.25488281 127.1009375 185.22363281 127.9296875 184.16113281 C128.5896875 184.16113281 129.2496875 184.16113281 129.9296875 184.16113281 C130.27580078 183.36449219 130.27580078 183.36449219 130.62890625 182.55175781 C132.34027594 179.40653784 134.5139593 176.69798724 136.7421875 173.91113281 C137.22429687 173.30269531 137.70640625 172.69425781 138.203125 172.06738281 C142.452544 166.7202878 146.76569169 161.42490106 151.08447266 156.13378906 C154.64570055 151.76439169 158.15040287 147.35572849 161.6171875 142.91113281 C165.76301072 137.59780765 170.03909527 132.41111878 174.375 127.25097656 C178.18299149 122.68108858 181.82630151 117.98001686 185.484375 113.29003906 C186.69480469 111.74123047 186.69480469 111.74123047 187.9296875 110.16113281 C188.55101562 109.24203125 189.17234375 108.32292969 189.8125 107.37597656 C193.2957123 103.73209949 197.55509136 103.25989425 202.4644928 102.90716553 C203.70992355 102.90557434 204.95535431 102.90398315 206.23852539 102.90234375 C206.9321669 102.89883911 207.62580841 102.89533447 208.34046936 102.89172363 C210.61119889 102.88299054 212.88161159 102.88872469 215.15234375 102.89550781 C216.74222371 102.89415889 218.33210326 102.89221647 219.92198181 102.88970947 C223.24465891 102.88676976 226.56722808 102.89101921 229.88989258 102.90039062 C234.13890946 102.91179383 238.38767388 102.90521295 242.63668156 102.8932457 C245.91643664 102.88600385 249.19613229 102.88832553 252.47588921 102.89350128 C254.04231229 102.89483087 255.60874086 102.89321439 257.17515755 102.88854218 C259.36699769 102.88343752 261.55843392 102.89124153 263.75024414 102.90234375 C264.9948793 102.90393494 266.23951447 102.90552612 267.52186584 102.90716553 C270.96918123 103.16407608 273.71572525 103.92176564 276.9296875 105.16113281 C276.89981786 113.98761161 275.52191948 119.34856207 269.9296875 126.16113281 C269.300625 126.95390625 268.6715625 127.74667969 268.0234375 128.56347656 C266.14597142 130.89279549 264.2414619 133.19672138 262.32226562 135.49169922 C259.59235715 138.76433494 256.88826778 142.05834402 254.1796875 145.34863281 C253.58309326 146.07284424 252.98649902 146.79705566 252.37182617 147.54321289 C243.78794561 157.96838705 235.25474583 168.42471259 226.95678711 179.0793457 C223.83440731 183.06668218 220.60142625 186.94223418 217.3046875 190.78613281 C212.2295777 196.70828937 207.56527537 202.88893471 202.9296875 209.16113281 C198.56271092 214.90465635 194.03093981 220.50219899 189.44921875 226.07519531 C186.58430012 229.58416542 183.75477314 233.12008556 180.9296875 236.66113281 C175.97550604 242.86605728 170.97622149 249.0309387 165.9296875 255.16113281 C164.76562051 256.5764937 163.6015584 257.99185861 162.4375 259.40722656 C155.80899382 267.46314577 155.80899382 267.46314577 153.50195312 270.25341797 C152.48448858 271.48796268 151.47238839 272.72695651 150.46679688 273.97119141 C147.14423107 278.05386103 147.14423107 278.05386103 144.9296875 279.16113281 C143.12194964 279.2651765 141.31038129 279.30500641 139.49967957 279.31503296 C138.3461499 279.32363342 137.19262024 279.33223389 136.00413513 279.34109497 C134.73199661 279.34535492 133.45985809 279.34961487 132.14916992 279.35400391 C130.80052479 279.36190498 129.45188176 279.37017394 128.10324097 279.37878418 C123.66389998 279.40502794 119.22454952 279.42032518 114.78515625 279.43457031 C113.25438239 279.43993112 111.72360859 279.44530863 110.19283485 279.45070267 C103.81820969 279.47234468 97.44358707 279.49107534 91.06893444 279.50232506 C81.95281009 279.51852017 72.83711503 279.55157378 63.72115248 279.60872591 C57.30312781 279.64757884 50.88521713 279.66697644 44.46707803 279.67224562 C40.6396171 279.67588137 36.81261374 279.68770886 32.98528099 279.72034836 C29.37441205 279.75069664 25.76427093 279.7566474 22.15330124 279.7449646 C20.21748224 279.74464286 18.28170637 279.76893542 16.34605408 279.79434204 C8.65039008 279.74029927 -2.25482703 278.97661828 -8.0703125 273.16113281 C-8.16699501 271.7067748 -8.19403047 270.24772811 -8.19336033 268.79016018 C-8.19535138 267.84068553 -8.19734243 266.89121089 -8.19939381 265.91296428 C-8.19648097 264.85753919 -8.19356813 263.80211409 -8.19056702 262.71470642 C-8.19142144 261.60312575 -8.19227587 260.49154509 -8.19315618 259.34628016 C-8.19481424 255.59045661 -8.1892843 251.83467691 -8.18383789 248.07885742 C-8.18355606 245.39894001 -8.18366955 242.71902535 -8.1842804 240.03910828 C-8.18480582 234.25343807 -8.18165706 228.46777911 -8.17604256 222.68211174 C-8.1679301 214.31691465 -8.1653126 205.95172301 -8.16405457 197.58652241 C-8.16186364 184.01593047 -8.15520247 170.44534454 -8.14575195 156.87475586 C-8.13657887 143.68888377 -8.12949753 130.50301331 -8.12524414 117.31713867 C-8.12498142 116.5049386 -8.12471869 115.69273852 -8.12444801 114.85592633 C-8.12314301 110.78152959 -8.12187929 106.70713284 -8.12063611 102.63273609 C-8.11026224 68.80886398 -8.09264284 34.98499913 -8.0703125 1.16113281 C-5.31571327 -0.2161668 -3.08289519 0.01868655 0 0 Z " fill="#A27FFC" transform="translate(118.0703125,108.8388671875)"/>
<path d="M0 0 C2.19904335 0.02106636 4.3981509 0.0361898 6.59727478 0.0456543 C12.35749603 0.08755827 18.11278114 0.21519319 23.87121582 0.35961914 C28.58779336 0.46364571 33.30403468 0.50733937 38.02152348 0.54786682 C47.74821051 0.63223936 57.47514894 0.75466472 67.19946289 0.98828125 C68.10071396 1.00308533 69.00196503 1.0178894 69.93052673 1.03314209 C76.10866714 1.20632339 76.10866714 1.20632339 78.33984375 3.4375 C77.68903104 14.72354483 66.19203814 25.78476798 59.33984375 34.4375 C58.53933594 35.45714844 57.73882812 36.47679687 56.9140625 37.52734375 C54.77118667 40.21044038 52.58156135 42.83675732 50.33984375 45.4375 C49.86546875 46.01757812 49.39109375 46.59765625 48.90234375 47.1953125 C44.3024347 51.98688443 37.50571203 51.18601992 31.33984375 51.4375 C25.62440494 51.52964187 19.91469229 51.49000632 14.19921875 51.421875 C12.58026209 51.405129 10.96130455 51.38846807 9.34234619 51.37188721 C5.97393374 51.33571166 2.60562277 51.29454135 -0.76269531 51.25048828 C-5.0581822 51.19527925 -9.35361237 51.15884438 -13.64932632 51.12685776 C-16.98336072 51.09889121 -20.31714364 51.05784088 -23.65099335 51.01325226 C-25.23442382 50.99419844 -26.81791853 50.97983101 -28.40143585 50.97045135 C-46.53828556 50.85208046 -46.53828556 50.85208046 -54.66015625 45.4375 C-54.31284316 39.55989381 -51.90799987 36.82559653 -48.09765625 32.6875 C-46.99228692 31.44377617 -45.88812219 30.19898071 -44.78515625 28.953125 C-44.24632812 28.35048828 -43.7075 27.74785156 -43.15234375 27.12695312 C-41.23048186 24.95102311 -39.40373199 22.71014531 -37.59765625 20.4375 C-36.9985997 19.71280518 -36.39954315 18.98811035 -35.78233337 18.24145508 C-34.18570621 16.13188996 -32.94248001 14.22070334 -31.66603088 11.93725586 C-23.80918724 -1.16214551 -14.19262077 -0.45719184 0 0 Z " fill="#A482FA" transform="translate(347.66015625,337.5625)"/>
<path d="M0 0 C0.33 0 0.66 0 1 0 C1 89.43 1 178.86 1 271 C49.84 270.67 98.68 270.34 149 270 C149.33 268.35 149.66 266.7 150 265 C151.75 264 151.75 264 154 263 C157.67937079 259.60365773 160.83697264 255.87470852 164 252 C164.44730469 251.48050781 164.89460937 250.96101562 165.35546875 250.42578125 C167.16201427 248.32255964 168.81406733 246.39510692 170 243.875 C171 242 171 242 173.3046875 240.1875 C179.30645628 235.31649925 183.74890248 228.96663754 187 222 C188.55475057 219.53747571 190.20268963 217.30424406 192 215 C192.66 215 193.32 215 194 215 C194.3403125 214.195625 194.3403125 214.195625 194.6875 213.375 C196.6945121 209.74326382 199.22835295 205.88582352 203 204 C203.28875 203.25234375 203.5775 202.5046875 203.875 201.734375 C205.1512738 198.63232064 206.74526493 196.72026122 209 194.25 C209.70125 193.47140625 210.4025 192.6928125 211.125 191.890625 C213 190 213 190 215 189 C215.98232808 187.26455373 216.96230056 185.52761245 217.91796875 183.77734375 C219.30091086 181.50572405 221.09460696 179.83968983 223 178 C223.33 177.01 223.66 176.02 224 175 C224.66 175 225.32 175 226 175 C226.3403125 174.195625 226.3403125 174.195625 226.6875 173.375 C229.05659204 169.08807155 231.92942181 165.7137188 236 163 C236.98253411 161.29694087 237.96174372 159.591627 238.90625 157.8671875 C242.02901678 152.5361785 246.31746149 148.90211543 251 145 C254.8360083 140.89636321 256.81541289 137.1290306 259 132 C260.31012638 130.64385678 261.64551657 129.31184229 263 128 C264.08649681 126.66501 265.1486088 125.30986245 266.1875 123.9375 C269.01379075 120.26881589 271.85747401 116.61683332 274.75 113 C275.48734375 112.071875 276.2246875 111.14375 276.984375 110.1875 C279 108 279 108 282 107 C282 106.01 282 105.02 282 104 C255.6 104 229.2 104 202 104 C202 103.67 202 103.34 202 103 C206.07723267 102.02711646 209.89539333 101.86750379 214.08178711 101.85473633 C215.12181129 101.84969841 215.12181129 101.84969841 216.18284607 101.84455872 C218.46436375 101.8350955 220.74580769 101.83310806 223.02734375 101.83203125 C224.62008189 101.82881587 226.21281973 101.82545159 227.80555725 101.82194519 C231.14015386 101.81596581 234.47472459 101.81410411 237.80932617 101.81469727 C242.07407595 101.81479892 246.33865936 101.8011384 250.60336971 101.78392506 C253.89169573 101.77278712 257.17998171 101.7707786 260.46832466 101.77130699 C262.04033546 101.7701299 263.61234739 101.76572338 265.18433952 101.75797462 C267.38594999 101.7481367 269.58720166 101.75106739 271.78881836 101.75708008 C273.03948593 101.75565506 274.2901535 101.75423004 275.57872009 101.75276184 C279.03556731 102.00257027 281.77868707 102.75557842 285 104 C284.97013036 112.82647879 283.59223198 118.18742926 278 125 C277.3709375 125.79277344 276.741875 126.58554688 276.09375 127.40234375 C274.21628392 129.73166268 272.3117744 132.03558857 270.39257812 134.33056641 C267.66266965 137.60320212 264.95858028 140.89721121 262.25 144.1875 C261.65340576 144.91171143 261.05681152 145.63592285 260.44213867 146.38208008 C251.85825811 156.80725423 243.32505833 167.26357978 235.02709961 177.91821289 C231.90471981 181.90554937 228.67173875 185.78110137 225.375 189.625 C220.2998902 195.54715656 215.63558787 201.7278019 211 208 C206.63302342 213.74352354 202.10125231 219.34106618 197.51953125 224.9140625 C194.65461262 228.4230326 191.82508564 231.95895275 189 235.5 C184.04581854 241.70492447 179.04653399 247.86980588 174 254 C172.83593301 255.41536089 171.6718709 256.83072579 170.5078125 258.24609375 C163.87930632 266.30201296 163.87930632 266.30201296 161.57226562 269.09228516 C160.55480108 270.32682987 159.54270089 271.5658237 158.53710938 272.81005859 C155.21454357 276.89272821 155.21454357 276.89272821 153 278 C151.19226214 278.10404369 149.38069379 278.1438736 147.56999207 278.15390015 C146.4164624 278.16250061 145.26293274 278.17110107 144.07444763 278.17996216 C142.80230911 278.18422211 141.53017059 278.18848206 140.21948242 278.19287109 C138.87083729 278.20077217 137.52219426 278.20904112 136.17355347 278.21765137 C131.73421248 278.24389513 127.29486202 278.25919237 122.85546875 278.2734375 C121.32469489 278.2787983 119.79392109 278.28417582 118.26314735 278.28956985 C111.88852219 278.31121187 105.51389957 278.32994253 99.13924694 278.34119225 C90.02312259 278.35738735 80.90742753 278.39044097 71.79146498 278.44759309 C65.37344031 278.48644603 58.95552963 278.50584362 52.53739053 278.51111281 C48.7099296 278.51474856 44.88292624 278.52657605 41.05559349 278.55921555 C37.44472455 278.58956383 33.83458343 278.59551459 30.22361374 278.58383179 C28.28779474 278.58351004 26.35201887 278.60780261 24.41636658 278.63320923 C16.72070258 278.57916646 5.81548547 277.81548547 0 272 C-0.09668251 270.54564199 -0.12371797 269.0865953 -0.12304783 267.62902737 C-0.12503888 266.67955272 -0.12702993 265.73007808 -0.12908131 264.75183147 C-0.12616847 263.69640638 -0.12325563 262.64098128 -0.12025452 261.55357361 C-0.12110894 260.44199294 -0.12196337 259.33041227 -0.12284368 258.18514735 C-0.12450174 254.4293238 -0.1189718 250.6735441 -0.11352539 246.91772461 C-0.11324356 244.2378072 -0.11335705 241.55789254 -0.1139679 238.87797546 C-0.11449332 233.09230526 -0.11134456 227.3066463 -0.10573006 221.52097893 C-0.0976176 213.15578183 -0.0950001 204.7905902 -0.09374207 196.4253896 C-0.09155114 182.85479766 -0.08488997 169.28421172 -0.07543945 155.71362305 C-0.06626637 142.52775096 -0.05918503 129.34188049 -0.05493164 116.15600586 C-0.05466892 115.34380579 -0.05440619 114.53160571 -0.05413551 113.69479351 C-0.05283051 109.62039678 -0.05156679 105.54600003 -0.05032361 101.47160327 C-0.03994974 67.64773117 -0.02233034 33.82386632 0 0 Z " fill="#27203E" transform="translate(110,110)"/>
<path d="M0 0 C2 2 2 2 2.1953125 4.1640625 C2.16050781 5.38222656 2.16050781 5.38222656 2.125 6.625 C2.10695312 7.44226563 2.08890625 8.25953125 2.0703125 9.1015625 C2.04710937 9.72804688 2.02390625 10.35453125 2 11 C2.804375 11.144375 3.60875 11.28875 4.4375 11.4375 C7 12 7 12 8 13 C8.11018065 15.59203191 8.15496333 18.15799267 8.15821838 20.75099182 C8.16315636 21.57264027 8.16809434 22.39428872 8.17318195 23.24083561 C8.18863508 26.01545401 8.19693859 28.79004914 8.20532227 31.56469727 C8.21489466 33.54511726 8.22490435 35.52553519 8.23532104 37.50595093 C8.26244543 42.90033458 8.28341407 48.29472705 8.30332303 53.68914151 C8.32513629 59.31995341 8.3525477 64.95073789 8.37937927 70.58152771 C8.42936939 81.25231039 8.47428469 91.92310823 8.51740164 102.59392065 C8.56672013 114.73883364 8.62165818 126.88371915 8.67708123 139.02860558 C8.79099823 164.01904476 8.897816 189.00951029 9 214 C13.98017248 214.22383228 18.95737347 214.38639099 23.94140625 214.49438477 C25.6333316 214.53942743 27.32491083 214.60068735 29.015625 214.67895508 C38.88938138 215.41579277 38.88938138 215.41579277 47.83676147 212.08522034 C49.85905211 209.81821776 51.43480254 207.59657453 53 205 C53.97517386 203.76630674 54.96425651 202.54325544 55.9765625 201.33984375 C56.8624102 200.20809835 57.74525412 199.07399505 58.625 197.9375 C59.09156006 197.34114746 59.55812012 196.74479492 60.03881836 196.13037109 C62.60738834 192.83705752 65.10755766 189.50429716 67.5625 186.125 C68.366875 185.09375 69.17125 184.0625 70 183 C70.66 183 71.32 183 72 183 C70.18690997 186.77727089 68.0926741 190.37269822 66 194 C66.66 194.33 67.32 194.66 68 195 C64.63722386 199.21791509 61.74110126 202.32553262 57 205 C53.14865937 208.47560008 50.96526063 211.55210906 48 216 C32.16 216 16.32 216 0 216 C0 144.72 0 73.44 0 0 Z " fill="#252239" transform="translate(176,110)"/>
<path d="M0 0 C0.33 0 0.66 0 1 0 C1 89.43 1 178.86 1 271 C49.84 270.67 98.68 270.34 149 270 C149.33 268.35 149.66 266.7 150 265 C151.75 264 151.75 264 154 263 C157.67937079 259.60365773 160.83697264 255.87470852 164 252 C164.44730469 251.48050781 164.89460937 250.96101562 165.35546875 250.42578125 C167.16201427 248.32255964 168.81406733 246.39510692 170 243.875 C171 242 171 242 173.3046875 240.1875 C179.30645628 235.31649925 183.74890248 228.96663754 187 222 C188.55475057 219.53747571 190.20268963 217.30424406 192 215 C192.66 215 193.32 215 194 215 C194.3403125 214.195625 194.3403125 214.195625 194.6875 213.375 C196.6945121 209.74326382 199.22835295 205.88582352 203 204 C203.28875 203.25234375 203.5775 202.5046875 203.875 201.734375 C205.1512738 198.63232064 206.74526493 196.72026122 209 194.25 C209.70125 193.47140625 210.4025 192.6928125 211.125 191.890625 C213 190 213 190 215 189 C215.95014533 187.26352751 216.90005618 185.52692526 217.84765625 183.7890625 C219.47046541 181.26958251 221.5595537 179.69475437 224 178 C222.84826645 180.46800047 221.95216435 182.04783565 220 184 C219.3574765 186.06874034 219.3574765 186.06874034 219 188 C218.34 188 217.68 188 217 188 C216.979375 188.721875 216.95875 189.44375 216.9375 190.1875 C215.87338838 193.37983487 215.41586756 193.57683443 212.6875 195.25 C208.68993203 197.81463118 207.63226447 200.60650199 205.95703125 204.93359375 C204.61258219 207.83650621 202.55229195 209.1324693 200 211 C198.19543795 213.25816781 196.61636059 215.59854998 195 218 C195.66 218 196.32 218 197 218 C197.3403125 217.195625 197.3403125 217.195625 197.6875 216.375 C199.45570089 213.17539839 201.53670203 210.70962777 204 208 C204.66 208 205.32 208 206 208 C205.38479725 211.99881788 203.39731331 214.80358226 201 218 C200.34 218 199.68 218 199 218 C198.566875 218.86625 198.566875 218.86625 198.125 219.75 C197.75375 220.4925 197.3825 221.235 197 222 C196.690625 222.680625 196.38125 223.36125 196.0625 224.0625 C194.94312701 226.10370956 193.67250431 227.40021326 192 229 C191.67 229.66 191.34 230.32 191 231 C190.34 231 189.68 231 189 231 C188.34 232.32 187.68 233.64 187 235 C186.34 235 185.68 235 185 235 C184.8453125 235.9590625 184.8453125 235.9590625 184.6875 236.9375 C184.460625 237.618125 184.23375 238.29875 184 239 C183.01 239.33 182.02 239.66 181 240 C181 240.66 181 241.32 181 242 C179.68 241.67 178.36 241.34 177 241 C176.9175 241.5775 176.835 242.155 176.75 242.75 C175.76493175 245.70520475 174.41897096 247.06482323 172 249 C170.68 249 169.36 249 168 249 C167.938125 249.886875 167.87625 250.77375 167.8125 251.6875 C166.81065479 255.77194586 165.19904189 257.347136 162 260 C161.34 260 160.68 260 160 260 C159.79375 260.86625 159.5875 261.7325 159.375 262.625 C157.71538292 266.69860557 155.66564724 269.53145054 152 272 C145.36315644 274.5322639 138.84491439 274.26792201 131.81274414 274.22705078 C129.83611282 274.22748886 129.83611282 274.22748886 127.81954956 274.22793579 C124.22291613 274.22850747 120.62641724 274.21678332 117.02981496 274.20278788 C113.26487369 274.19024951 109.49992902 274.18910757 105.73497009 274.18673706 C98.61302258 274.1805314 91.49113678 274.16413299 84.36921638 274.14403808 C76.25797161 274.12165059 68.14672382 274.11067849 60.03545582 274.10064721 C43.35693448 274.07976592 26.67847513 274.04460778 10 274 C10 273.34 10 272.68 10 272 C6.7 272 3.4 272 0 272 C0 182.24 0 92.48 0 0 Z " fill="#2C1F54" transform="translate(110,110)"/>
<path d="M0 0 C2.19904335 0.02106636 4.3981509 0.0361898 6.59727478 0.0456543 C12.35749603 0.08755827 18.11278114 0.21519319 23.87121582 0.35961914 C28.58779336 0.46364571 33.30403468 0.50733937 38.02152348 0.54786682 C47.74821051 0.63223936 57.47514894 0.75466472 67.19946289 0.98828125 C68.10071396 1.00308533 69.00196503 1.0178894 69.93052673 1.03314209 C76.10866714 1.20632339 76.10866714 1.20632339 78.33984375 3.4375 C77.68903104 14.72354483 66.19203814 25.78476798 59.33984375 34.4375 C58.53933594 35.45714844 57.73882812 36.47679687 56.9140625 37.52734375 C54.77118667 40.21044038 52.58156135 42.83675732 50.33984375 45.4375 C49.86546875 46.01757812 49.39109375 46.59765625 48.90234375 47.1953125 C44.3024347 51.98688443 37.50571203 51.18601992 31.33984375 51.4375 C25.62440494 51.52964187 19.91469229 51.49000632 14.19921875 51.421875 C12.58026209 51.405129 10.96130455 51.38846807 9.34234619 51.37188721 C5.97393374 51.33571166 2.60562277 51.29454135 -0.76269531 51.25048828 C-5.0581822 51.19527925 -9.35361237 51.15884438 -13.64932632 51.12685776 C-16.98336072 51.09889121 -20.31714364 51.05784088 -23.65099335 51.01325226 C-25.23442382 50.99419844 -26.81791853 50.97983101 -28.40143585 50.97045135 C-46.53828556 50.85208046 -46.53828556 50.85208046 -54.66015625 45.4375 C-54.31284316 39.55989381 -51.90799987 36.82559653 -48.09765625 32.6875 C-46.99228692 31.44377617 -45.88812219 30.19898071 -44.78515625 28.953125 C-44.24632812 28.35048828 -43.7075 27.74785156 -43.15234375 27.12695312 C-41.23048186 24.95102311 -39.40373199 22.71014531 -37.59765625 20.4375 C-36.9985997 19.71280518 -36.39954315 18.98811035 -35.78233337 18.24145508 C-34.18570621 16.13188996 -32.94248001 14.22070334 -31.66603088 11.93725586 C-23.80918724 -1.16214551 -14.19262077 -0.45719184 0 0 Z M-31.54321861 14.61791611 C-33.43128488 17.69373239 -35.82934844 20.31212034 -38.22265625 23 C-42.04140985 27.45754188 -45.74597529 31.99002344 -49.34765625 36.625 C-49.78215088 37.17808838 -50.21664551 37.73117676 -50.66430664 38.30102539 C-52.97082338 41.05193527 -52.97082338 41.05193527 -53.66015625 44.4375 C-21.32015625 44.4375 11.01984375 44.4375 44.33984375 44.4375 C45.32984375 42.4575 46.31984375 40.4775 47.33984375 38.4375 C48.14421875 37.798125 48.94859375 37.15875 49.77734375 36.5 C52.44838902 34.3501343 53.53745531 32.31831556 55.16870117 29.36108398 C57.16865694 26.07618687 59.72105531 23.29696872 62.27734375 20.4375 C65.38118089 16.9393389 68.36929764 13.47591125 71.03125 9.625 C73.33984375 6.4375 73.33984375 6.4375 76.33984375 4.4375 C76.33984375 3.7775 76.33984375 3.1175 76.33984375 2.4375 C63.75299042 2.11231166 51.16714467 1.86396704 38.57693768 1.71212959 C32.72970841 1.63923031 26.88536376 1.54046787 21.03979492 1.38134766 C15.39202141 1.22858371 9.74701087 1.14539507 4.09733009 1.1092186 C1.94846915 1.08346081 -0.20024972 1.03315349 -2.34792519 0.95727921 C-16.72823326 0.46971352 -24.20563327 1.67988601 -31.54321861 14.61791611 Z " fill="#28223B" transform="translate(347.66015625,337.5625)"/>
<path d="M0 0 C1.04002419 -0.00503792 1.04002419 -0.00503792 2.10105896 -0.01017761 C4.38257664 -0.01964083 6.66402058 -0.02162827 8.94555664 -0.02270508 C10.53829478 -0.02592046 12.13103262 -0.02928474 13.72377014 -0.03279114 C17.05836675 -0.03877052 20.39293748 -0.04063222 23.72753906 -0.04003906 C27.99228884 -0.03993741 32.25687225 -0.05359793 36.5215826 -0.07081127 C39.80990862 -0.0819492 43.09819461 -0.08395773 46.38653755 -0.08342934 C47.95854835 -0.08460642 49.53056028 -0.08901295 51.10255241 -0.0967617 C53.30416288 -0.10659963 55.50541455 -0.10366894 57.70703125 -0.09765625 C59.58303261 -0.09979378 59.58303261 -0.09979378 61.49693298 -0.10197449 C64.9537802 0.14783394 67.69689996 0.90084209 70.91821289 2.14526367 C70.88834325 10.97174246 69.51044487 16.33269293 63.91821289 23.14526367 C62.97461914 24.33442383 62.97461914 24.33442383 62.01196289 25.54760742 C60.13449681 27.87692635 58.22998729 30.18085224 56.31079102 32.47583008 C53.58088281 35.74846547 50.87675385 39.04244295 48.16821289 42.33276367 C47.57234375 43.05625 46.97647461 43.77973633 46.36254883 44.52514648 C36.69927641 56.26319559 27.10776026 68.03082651 17.91821289 80.14526367 C16.56104122 76.07374867 17.4289797 74.13911631 18.91821289 70.14526367 C20.13305664 68.49682617 20.13305664 68.49682617 21.48071289 66.95776367 C24.01964072 64.48650919 24.01964072 64.48650919 24.35571289 62.08276367 C25.14436393 59.36629898 26.99872463 58.4391008 29.16821289 56.77026367 C32.07153379 54.07432284 34.06385624 50.7606784 36.20727539 47.44995117 C37.92212322 45.13999633 39.63560631 43.85005561 41.91821289 42.14526367 C43.19829551 39.05749196 43.19829551 39.05749196 43.91821289 36.14526367 C45.23821289 36.14526367 46.55821289 36.14526367 47.91821289 36.14526367 C48.16571289 35.07276367 48.41321289 34.00026367 48.66821289 32.89526367 C49.95948682 29.02144188 50.98498083 27.81183827 53.91821289 25.14526367 C54.93687518 23.48993745 55.93632102 21.82266229 56.91821289 20.14526367 C58.91821289 17.33276367 58.91821289 17.33276367 60.91821289 15.14526367 C61.90821289 15.14526367 62.89821289 15.14526367 63.91821289 15.14526367 C63.91821289 14.48526367 63.91821289 13.82526367 63.91821289 13.14526367 C63.25821289 13.14526367 62.59821289 13.14526367 61.91821289 13.14526367 C62.29417498 10.36314424 62.59139748 8.55733527 64.35571289 6.33276367 C65.91821289 5.14526367 65.91821289 5.14526367 67.91821289 5.14526367 C67.91821289 4.15526367 67.91821289 3.16526367 67.91821289 2.14526367 C41.51821289 2.14526367 15.11821289 2.14526367 -12.08178711 2.14526367 C-12.08178711 1.81526367 -12.08178711 1.48526367 -12.08178711 1.14526367 C-8.00455444 0.17238013 -4.18639378 0.01276746 0 0 Z " fill="#232037" transform="translate(324.081787109375,211.854736328125)"/>
<path d="M0 0 C21.12 0 42.24 0 64 0 C64 71.61 64 143.22 64 217 C79.84 216.67 95.68 216.34 112 216 C113.98 213.03 113.98 213.03 116 210 C118.56775224 207.24436345 120.86459099 205.09027267 124 203 C124.99 203 125.98 203 127 203 C126 205 126 205 123.25 207.0625 C119.75518572 209.82680678 118.27778142 213.05576479 116.56640625 217.109375 C114.58203327 219.50447855 113.06715677 219.47929825 110.07585144 219.83273315 C106.2988855 220.13707149 102.5297739 220.1628482 98.7421875 220.16796875 C97.8761087 220.17129715 97.01002991 220.17462555 96.1177063 220.17805481 C94.29738899 220.18309181 92.47706255 220.18546414 90.65673828 220.18530273 C87.87647404 220.18749884 85.09660096 220.20571485 82.31640625 220.22460938 C80.54166802 220.22754208 78.76692791 220.2295277 76.9921875 220.23046875 C75.75140945 220.24124702 75.75140945 220.24124702 74.48556519 220.25224304 C73.7077066 220.24916641 72.92984802 220.24608978 72.12841797 220.24291992 C71.45003876 220.24434494 70.77165955 220.24576996 70.07272339 220.24723816 C67.49345201 219.93957805 65.38997138 218.99265366 63 218 C62.84266908 199.89494746 62.69487848 181.78983976 62.5570364 163.68462849 C62.49276569 155.26896054 62.42586652 146.8533321 62.35180664 138.43774414 C61.83272041 79.18079451 61.83272041 79.18079451 62.19580078 49.70849609 C62.20504003 48.9584415 62.21427928 48.2083869 62.22379851 47.43560338 C62.42092288 31.95606818 62.72429463 16.47830372 63 1 C42.21 1 21.42 1 0 1 C0 0.67 0 0.34 0 0 Z " fill="#8771C0" transform="translate(112,109)"/>
<path d="M0 0 C0.33 0 0.66 0 1 0 C1 46.2 1 92.4 1 140 C3.97 139.01 3.97 139.01 7 138 C9.78022671 137.75669765 9.78022671 137.75669765 12.68565369 137.76622009 C13.79445389 137.76491592 14.90325409 137.76361176 16.0456543 137.76226807 C17.24738281 137.77102966 18.44911133 137.77979126 19.68725586 137.78881836 C20.96435928 137.7901326 22.24146271 137.79144684 23.55726624 137.7928009 C26.32699051 137.7957261 29.0965959 137.80494541 31.86628532 137.81910515 C36.24993102 137.8414434 40.63353312 137.84947348 45.01722717 137.85560608 C51.95379316 137.86697338 58.890294 137.88768779 65.82682377 137.91250378 C78.24220649 137.9568494 90.65761143 137.99007214 103.07305247 138.01274782 C107.42653465 138.0211306 111.77995161 138.03513076 116.13340175 138.05372036 C118.1916103 138.06182429 120.24981058 138.06764712 122.30802917 138.07249451 C124.81163755 138.07849789 127.31524104 138.08814365 129.81881714 138.10220337 C139.15191245 138.42104213 139.15191245 138.42104213 148 136 C148 137.32 148 138.64 148 140 C144.25927449 140.86770847 140.80638496 141.12362281 136.96989441 141.12025452 C135.75979706 141.12162918 134.54969971 141.12300385 133.30293274 141.12442017 C131.98375351 141.12082489 130.66457428 141.11722961 129.30541992 141.11352539 C127.89583335 141.11324318 126.48624664 141.11340192 125.07666016 141.1139679 C121.25681721 141.11425454 117.43700573 141.10837923 113.6171701 141.10139394 C109.62265543 141.09513834 105.62814002 141.09455485 101.63362122 141.09336853 C94.07247176 141.09026173 86.51133679 141.0820571 78.9501937 141.07201904 C68.73066983 141.05874656 58.51114199 141.05335274 48.29161167 141.04751682 C32.19439694 141.03811678 16.09721276 141.01819351 0 141 C0 94.47 0 47.94 0 0 Z " fill="#8368D1" transform="translate(111,240)"/>
<path d="M0 0 C2.20381858 0.02614723 4.40771914 0.04605896 6.61164856 0.06002808 C12.38258841 0.11321242 18.1485095 0.25046841 23.91748047 0.40588379 C29.8160411 0.54970647 35.71542174 0.61316766 41.61523438 0.68359375 C53.16885904 0.83325685 64.71877616 1.07184224 76.26953125 1.3671875 C76.26953125 1.6971875 76.26953125 2.0271875 76.26953125 2.3671875 C75.0639859 2.35084763 73.85844055 2.33450775 72.61636353 2.31767273 C61.22905794 2.17187037 49.84307057 2.09499589 38.454813 2.08478069 C32.60029165 2.07733593 26.74796844 2.04601398 20.89404297 1.95922852 C15.23925124 1.87628851 9.58745191 1.8572408 3.93214035 1.88160133 C1.77996332 1.87981583 -0.37232306 1.85539987 -2.52396774 1.80750084 C-13.52799631 1.15097635 -13.52799631 1.15097635 -23.60509491 4.65541458 C-27.1513349 8.09221073 -29.40544444 12.04976647 -31.73046875 16.3671875 C-33.32858276 18.43229675 -33.32858276 18.43229675 -34.76171875 20.0234375 C-39.44778327 25.42130929 -43.9975722 30.8875245 -48.35546875 36.5546875 C-48.99452148 37.38419922 -48.99452148 37.38419922 -49.64648438 38.23046875 C-51.16790599 40.22561143 -52.60565139 42.11755277 -53.73046875 44.3671875 C-52.62759521 44.40477173 -52.62759521 44.40477173 -51.50244141 44.44311523 C-48.11999183 44.560292 -44.73773939 44.68245873 -41.35546875 44.8046875 C-40.19917969 44.84400391 -39.04289062 44.88332031 -37.8515625 44.92382812 C-32.91497254 45.10511533 -28.01337975 45.29221783 -23.10546875 45.8671875 C-14.81441235 46.77198895 -6.43665632 46.74058791 1.89453125 46.9296875 C3.67969587 46.97296324 5.46485226 47.01658013 7.25 47.06054688 C11.58975873 47.1666964 15.92960303 47.26822008 20.26953125 47.3671875 C20.26953125 47.6971875 20.26953125 48.0271875 20.26953125 48.3671875 C31.15953125 48.8621875 31.15953125 48.8621875 42.26953125 49.3671875 C42.26953125 49.6971875 42.26953125 50.0271875 42.26953125 50.3671875 C32.94781938 51.49628254 23.69220108 51.46246718 14.32421875 51.3515625 C12.70240352 51.33482563 11.0805875 51.31816444 9.45877075 51.30157471 C6.07840705 51.26533567 2.69814241 51.22415489 -0.68212891 51.18017578 C-4.99336776 51.12505501 -9.30455075 51.08857142 -13.61601448 51.05654526 C-16.95863077 51.0285722 -20.30099654 50.98751904 -23.6434288 50.94293976 C-25.23244154 50.92387885 -26.82151844 50.90951495 -28.41061783 50.90013885 C-46.60843341 50.78187773 -46.60843341 50.78187773 -54.73046875 45.3671875 C-54.38315566 39.48958131 -51.97831237 36.75528403 -48.16796875 32.6171875 C-47.06259942 31.37346367 -45.95843469 30.12866821 -44.85546875 28.8828125 C-44.31664062 28.28017578 -43.7778125 27.67753906 -43.22265625 27.05664062 C-41.30079436 24.88071061 -39.47404449 22.63983281 -37.66796875 20.3671875 C-36.76924797 19.28028122 -36.76924797 19.28028122 -35.85237122 18.17141724 C-34.25496374 16.06034115 -33.01392846 14.15024775 -31.73881531 11.86447144 C-23.8723793 -1.27201306 -14.20952192 -0.49679194 0 0 Z " fill="#281F45" transform="translate(347.73046875,337.6328125)"/>
<path d="M0 0 C0.99 0.66 1.98 1.32 3 2 C-0.29102899 7.19100448 -3.51496159 11.75101624 -8 16 C-8.721875 16.928125 -9.44375 17.85625 -10.1875 18.8125 C-10.785625 19.534375 -11.38375 20.25625 -12 21 C-12.66 21 -13.32 21 -14 21 C-14.15662109 21.88171875 -14.15662109 21.88171875 -14.31640625 22.78125 C-15.10085505 25.32734668 -16.1340177 26.55982345 -17.9375 28.5 C-20.15157612 30.8935958 -21.56289132 33.08455411 -23 36 C-25.47332266 38.60701577 -28.05660686 41.05265754 -30.6875 43.5 C-33.0939322 45.80244418 -33.0939322 45.80244418 -34 48.5 C-35.32507066 51.81267666 -37.43091641 53.55325372 -40 56 C-41.34294481 57.65893182 -42.67744688 59.32476605 -44 61 C-44.48210937 61.474375 -44.96421875 61.94875 -45.4609375 62.4375 C-46.99835106 63.99832595 -48.23775497 65.58681954 -49.5 67.375 C-49.9021875 67.93960938 -50.304375 68.50421875 -50.71875 69.0859375 C-51.6535805 70.48248306 -52.53194531 71.91730341 -53.375 73.37109375 C-55.21379631 76.34587721 -57.28520906 78.98176374 -59.5 81.6875 C-60.2734375 82.64011719 -61.046875 83.59273438 -61.84375 84.57421875 C-64 87 -64 87 -67 89 C-68.00739746 90.66220581 -69.00522955 92.33020674 -70 94 C-74.9560922 100.79305175 -80.16355397 107.01124209 -87 112 C-87.66 112 -88.32 112 -89 112 C-89 111.34 -89 110.68 -89 110 C-87.51387585 108.81110068 -86.0271122 107.62297893 -84.53515625 106.44140625 C-82.27039708 104.31495298 -81.1858992 101.83298142 -80 99 C-79.01 99 -78.02 99 -77 99 C-76.67 97.35 -76.34 95.7 -76 94 C-75.34 94 -74.68 94 -74 94 C-73.87625 93.1028125 -73.87625 93.1028125 -73.75 92.1875 C-72.78423221 89.37067727 -71.51131433 88.52200868 -69 87 C-68.34 87 -67.68 87 -67 87 C-66.67 85.35 -66.34 83.7 -66 82 C-65.38125 81.9175 -64.7625 81.835 -64.125 81.75 C-61.26245954 80.7396916 -61.34207233 79.71514963 -60 77 C-57.9358888 73.95337935 -55.72566361 71.00865082 -53.54492188 68.04492188 C-51.60719654 65.37877116 -50.04917961 63.14753882 -49 60 C-48.34 60 -47.68 60 -47 60 C-46.7525 59.4225 -46.505 58.845 -46.25 58.25 C-44.83073705 55.6953267 -43.05930146 54.05930146 -41 52 C-40.505 51.01 -40.505 51.01 -40 50 C-38.7490436 47.49808719 -36.97010432 45.97010432 -35 44 C-34.67 43.29875 -34.34 42.5975 -34 41.875 C-32.72960557 39.49301044 -31.37773594 39.15051739 -29 38 C-28.67 37.01 -28.34 36.02 -28 35 C-27.34 35 -26.68 35 -26 35 C-25.731875 34.360625 -25.46375 33.72125 -25.1875 33.0625 C-24 31 -24 31 -21 30 C-21 28.35 -21 26.7 -21 25 C-20.01 25 -19.02 25 -18 25 C-17.95875 24.278125 -17.9175 23.55625 -17.875 22.8125 C-16.65400254 18.88786532 -14.16543055 17.51942432 -11 15 C-10.67 14.34 -10.34 13.68 -10 13 C-8.70227038 10.40454076 -6.71036058 9.1334676 -4.46484375 7.37109375 C-2.22925528 5.27858294 -1.16757903 2.78921658 0 0 Z " fill="#7B59E2" transform="translate(348,264)"/>
<path d="M0 0 C0.33 0 0.66 0 1 0 C1 70.95 1 141.9 1 215 C15.52 214.67 30.04 214.34 45 214 C49.71039558 208.70080498 54.30269618 203.52124527 58.625 197.9375 C59.09156006 197.34114746 59.55812012 196.74479492 60.03881836 196.13037109 C62.60738834 192.83705752 65.10755766 189.50429716 67.5625 186.125 C68.366875 185.09375 69.17125 184.0625 70 183 C70.66 183 71.32 183 72 183 C70.18690997 186.77727089 68.0926741 190.37269822 66 194 C66.66 194.33 67.32 194.66 68 195 C64.63722386 199.21791509 61.74110126 202.32553262 57 205 C53.14865937 208.47560008 50.96526063 211.55210906 48 216 C32.16 216 16.32 216 0 216 C0 144.72 0 73.44 0 0 Z " fill="#493A73" transform="translate(176,110)"/>
<path d="M0 0 C0.75237946 0.01797638 1.50475891 0.03595276 2.27993774 0.05447388 C3.08031464 0.05374374 3.88069153 0.05301361 4.70532227 0.05226135 C7.34644745 0.05574022 9.98580104 0.09461335 12.62661743 0.13381958 C14.45935096 0.14314669 16.29209696 0.15026329 18.12484741 0.15525818 C22.9453278 0.17433607 27.76505321 0.22344359 32.5852356 0.27877808 C37.50517565 0.32995356 42.42523786 0.35276858 47.34536743 0.37796021 C56.99674055 0.43156163 66.64755368 0.51688397 76.29849243 0.62210083 C76.29849243 1.61210083 76.29849243 2.60210083 76.29849243 3.62210083 C75.24661743 4.45741333 75.24661743 4.45741333 74.17349243 5.30960083 C70.46810381 8.29002211 68.07043633 11.79128785 65.29849243 15.62210083 C59.13035084 23.82805417 59.13035084 23.82805417 55.54849243 27.24710083 C53.28778642 29.63340162 52.52066039 31.54676109 51.38833618 34.57522583 C48.929342 39.19355181 44.89798311 42.87168811 41.29849243 46.62210083 C41.29849243 43.38591363 41.46627482 40.75892106 42.29849243 37.62210083 C44.67349243 35.43460083 44.67349243 35.43460083 47.29849243 33.62210083 C49.16245017 31.9652495 50.2068027 30.81121091 51.29849243 28.55960083 C52.29849243 26.62210083 52.29849243 26.62210083 55.29849243 24.62210083 C55.95871507 22.93853311 56.6189185 21.25495786 57.27896118 19.57131958 C59.41037673 15.49631438 63.17686404 11.68291503 67.29849243 9.62210083 C67.95849243 7.31210083 68.61849243 5.00210083 69.29849243 2.62210083 C44.87849243 2.62210083 20.45849243 2.62210083 -4.70150757 2.62210083 C-5.03150757 3.94210083 -5.36150757 5.26210083 -5.70150757 6.62210083 C-8.7129961 11.67709944 -11.94850649 16.70443381 -17.70150757 18.62210083 C-19.40737332 20.24862399 -21.07926217 21.91216649 -22.70150757 23.62210083 C-20.93948552 19.46580177 -18.12364234 16.17733885 -15.32650757 12.68460083 C-14.84439819 12.07680786 -14.36228882 11.46901489 -13.86557007 10.84280396 C-12.48140932 9.09943845 -11.09250373 7.36001609 -9.70150757 5.62210083 C-9.17658722 4.77190369 -8.65166687 3.92170654 -8.11083984 3.04574585 C-5.35583003 0.27436977 -3.83856265 0.03793705 0 0 Z " fill="#8C6FDB" transform="translate(315.7015075683594,213.37789916992188)"/>
<path d="M0 0 C0.495 0.99 0.495 0.99 1 2 C1.66 2 2.32 2 3 2 C3 2.66 3 3.32 3 4 C2.01 4 1.02 4 0 4 C-0.268125 4.598125 -0.53625 5.19625 -0.8125 5.8125 C-2.00572423 8.01054464 -3.24678871 9.24678871 -5 11 C-6.01187895 12.65948148 -7.0126546 14.32580562 -8 16 C-8.66 16.66 -9.32 17.32 -10 18 C-11.03842565 20.31648799 -12.0421975 22.64903024 -13 25 C-14.32 25 -15.64 25 -17 25 C-17.3403125 26.5778125 -17.3403125 26.5778125 -17.6875 28.1875 C-18.84217171 32.22481369 -20.91901197 34.12907934 -24 37 C-25.04392868 38.3364434 -26.06370316 39.69199902 -27.0625 41.0625 C-29.1872897 43.95199551 -31.26131325 46.65255421 -34 49 C-34.66 49 -35.32 49 -36 49 C-36.04125 49.886875 -36.0825 50.77375 -36.125 51.6875 C-37.33855291 56.28166459 -39.10804282 57.35346912 -43 60 C-43.99 60 -44.98 60 -46 60 C-46.4021875 60.9590625 -46.4021875 60.9590625 -46.8125 61.9375 C-48 64 -48 64 -51 65 C-51 64.01 -51 63.02 -51 62 C-50.34 62 -49.68 62 -49 62 C-48.773125 61.46375 -48.54625 60.9275 -48.3125 60.375 C-45.94340796 56.08807155 -43.07057819 52.7137188 -39 50 C-38.01746589 48.29694087 -37.03825628 46.591627 -36.09375 44.8671875 C-32.97098322 39.5361785 -28.68253851 35.90211543 -24 32 C-20.1639917 27.89636321 -18.18458711 24.1290306 -16 19 C-14.68870078 17.64499081 -13.35308313 16.31328657 -12 15 C-10.83028397 13.56075209 -9.68437997 12.10183969 -8.5625 10.625 C-5.78833261 7.00782053 -2.9443032 3.47963105 0 0 Z " fill="#312458" transform="translate(385,223)"/>
<path d="M0 0 C0.42419257 8.05965888 -1.26760002 13.10235888 -6.3125 19.375 C-8.81625161 22.1344539 -9.75503529 22.92873754 -13.4375 24 C-14.283125 24 -15.12875 24 -16 24 C-16 25.32 -16 26.64 -16 28 C-16.66 28 -17.32 28 -18 28 C-18 28.99 -18 29.98 -18 31 C-18.66 31 -19.32 31 -20 31 C-20 31.99 -20 32.98 -20 34 C-21.375 35.6875 -21.375 35.6875 -23 37 C-23.66 37 -24.32 37 -25 37 C-25.33 37.66 -25.66 38.32 -26 39 C-26 38.34 -26 37.68 -26 37 C-30.00344027 39.89137353 -32.29967128 42.90294952 -35 47 C-35.66 47 -36.32 47 -37 47 C-35.64763423 44.06120516 -34.10057341 41.70767089 -32 39.25 C-31.484375 38.63640625 -30.96875 38.0228125 -30.4375 37.390625 C-29 36 -29 36 -27 36 C-26.84144531 35.39671875 -26.68289063 34.7934375 -26.51953125 34.171875 C-24.98329003 28.90961224 -23.75413038 26.09018475 -19 23 C-16.62112149 20.87600133 -16.0446753 20.13402591 -15 17 C-14.34 17 -13.68 17 -13 17 C-12.9071875 15.948125 -12.9071875 15.948125 -12.8125 14.875 C-11.69528762 10.92178696 -9.79812617 9.00286711 -7 6 C-6.34 5.67 -5.68 5.34 -5 5 C-4.67 4.34 -4.34 3.68 -4 3 C-3.00748537 1.01497074 -2.38353202 0 0 0 Z " fill="#2B2544" transform="translate(342,281)"/>
<path d="M0 0 C0.66 0 1.32 0 2 0 C0.51978375 3.27441776 -1.35393199 5.84723952 -3.625 8.625 C-4.33269531 9.49769531 -5.04039062 10.37039063 -5.76953125 11.26953125 C-6.87361328 12.62111328 -6.87361328 12.62111328 -8 14 C-9.44069155 15.76823777 -10.87831128 17.53898382 -12.3125 19.3125 C-12.94800781 20.09238281 -13.58351563 20.87226563 -14.23828125 21.67578125 C-16.06795164 23.99884888 -16.06795164 23.99884888 -17.6015625 26.69921875 C-19 29 -19 29 -21.0625 30.5 C-23.55802729 32.17026987 -23.55802729 32.17026987 -25 37 C-57.34 37 -89.68 37 -123 37 C-122.67 36.34 -122.34 35.68 -122 35 C-121.10765656 35.00222061 -120.21531311 35.00444122 -119.29592896 35.00672913 C-110.85197858 35.02683585 -102.40803635 35.04202683 -93.96406746 35.05181217 C-89.62382097 35.05701215 -85.2835944 35.06405691 -80.94335938 35.07543945 C-76.74825726 35.08637148 -72.5531742 35.09229853 -68.35805893 35.09487724 C-66.76423722 35.09671301 -65.17041645 35.1002975 -63.57660294 35.10573006 C-52.23333754 35.14470383 -52.23333754 35.14470383 -40.93356323 34.21531677 C-38.28905435 33.92083087 -35.65796731 34 -33 34 C-32.34 33.67 -31.68 33.34 -31 33 C-30.19691406 32.9071875 -29.39382813 32.814375 -28.56640625 32.71875 C-25.19446591 31.77440141 -24.63851844 30.49455057 -22.9375 27.5 C-20.46137864 23.16507286 -20.46137864 23.16507286 -17.81640625 22.21875 C-17.21699219 22.1465625 -16.61757813 22.074375 -16 22 C-16.495 20.515 -16.495 20.515 -17 19 C-16.01 17.515 -16.01 17.515 -15 16 C-14.01 16 -13.02 16 -12 16 C-11.5978125 14.5459375 -11.5978125 14.5459375 -11.1875 13.0625 C-10.795625 12.051875 -10.40375 11.04125 -10 10 C-9.01 9.67 -8.02 9.34 -7 9 C-6.896875 8.21625 -6.79375 7.4325 -6.6875 6.625 C-6 4 -6 4 -3 2 C-2.01 2 -1.02 2 0 2 C0 1.34 0 0.68 0 0 Z " fill="#7258C0" transform="translate(417,345)"/>
<path d="M0 0 C2 2 2 2 2.22010803 4.33825684 C2.20684982 5.32684692 2.19359161 6.31543701 2.17993164 7.33398438 C2.17118515 8.47162231 2.16243866 9.60926025 2.15342712 10.78137207 C2.13502274 12.03945679 2.11661835 13.2975415 2.09765625 14.59375 C2.07441014 17.34502302 2.05922215 20.09633148 2.04345703 22.84765625 C2.03837222 23.57931252 2.03328741 24.31096878 2.02804852 25.06479645 C1.97283087 33.97120212 2.07696276 42.87555731 2.18359375 51.78125 C2.19351978 52.62505219 2.20344582 53.46885437 2.21367264 54.33822632 C2.26464174 58.64510581 2.31763101 62.9519552 2.37231445 67.25878906 C2.42828431 71.68973626 2.47813345 76.12073194 2.52671719 80.55176544 C2.56564123 84.01078379 2.60870903 87.4697415 2.65294075 90.92869568 C2.67318405 92.56487739 2.6919245 94.20107847 2.70907402 95.83729553 C2.73323341 98.1031985 2.76323877 100.36895355 2.79467773 102.63476562 C2.81022202 103.91661743 2.8257663 105.19846924 2.84178162 106.51916504 C2.99016468 109.78362097 3.25151418 112.81837089 4 116 C4.66 116.33 5.32 116.66 6 117 C4.02 117 2.04 117 0 117 C0 78.39 0 39.78 0 0 Z " fill="#2B244A" transform="translate(177,208)"/>
<path d="M0 0 C0 3.48116848 -1.16549484 5.23642826 -2.92578125 8.1640625 C-4.14555693 10.18598726 -4.14555693 10.18598726 -5.5 13.1875 C-7 16 -7 16 -8.875 17.8125 C-10.92137958 19.91906722 -11.87054108 21.54086412 -13.1875 24.125 C-16.2523873 29.87522199 -20.52295608 34.31871138 -25 39 C-25.50015625 39.56332031 -26.0003125 40.12664062 -26.515625 40.70703125 C-29.13420278 43.58249483 -31.10831625 44.66642711 -35 45 C-33.32199583 41.13777811 -30.79670273 38.01311177 -28.1875 34.75 C-27.70684082 34.14373779 -27.22618164 33.53747559 -26.73095703 32.9128418 C-20.88342003 25.5579855 -14.94617157 18.275159 -9 11 C-8.28191162 10.12093994 -8.28191162 10.12093994 -7.54931641 9.22412109 C-5.03547662 6.14728129 -2.51917044 3.07247661 0 0 Z " fill="#8C6CE2" transform="translate(283,248)"/>
<path d="M0 0 C1.04002419 -0.00503792 1.04002419 -0.00503792 2.10105896 -0.01017761 C4.38257664 -0.01964083 6.66402058 -0.02162827 8.94555664 -0.02270508 C10.53829478 -0.02592046 12.13103262 -0.02928474 13.72377014 -0.03279114 C17.05836675 -0.03877052 20.39293748 -0.04063222 23.72753906 -0.04003906 C27.99228884 -0.03993741 32.25687225 -0.05359793 36.5215826 -0.07081127 C39.80990862 -0.0819492 43.09819461 -0.08395773 46.38653755 -0.08342934 C47.95854835 -0.08460642 49.53056028 -0.08901295 51.10255241 -0.0967617 C53.30416288 -0.10659963 55.50541455 -0.10366894 57.70703125 -0.09765625 C59.58303261 -0.09979378 59.58303261 -0.09979378 61.49693298 -0.10197449 C64.9537802 0.14783394 67.69689996 0.90084209 70.91821289 2.14526367 C70.83048834 4.04192894 70.72229988 5.9376536 70.60571289 7.83276367 C70.54770508 8.88850586 70.48969727 9.94424805 70.42993164 11.03198242 C69.88039225 14.37536332 68.83147271 16.38052629 66.91821289 19.14526367 C65.91821289 16.14526367 65.91821289 16.14526367 65.91821289 14.14526367 C64.92821289 12.66026367 64.92821289 12.66026367 63.91821289 11.14526367 C65.23821289 8.17526367 66.55821289 5.20526367 67.91821289 2.14526367 C41.51821289 2.14526367 15.11821289 2.14526367 -12.08178711 2.14526367 C-12.08178711 1.81526367 -12.08178711 1.48526367 -12.08178711 1.14526367 C-8.00455444 0.17238013 -4.18639378 0.01276746 0 0 Z " fill="#1D123A" transform="translate(324.081787109375,211.854736328125)"/>
<path d="M0 0 C0.66 0.33 1.32 0.66 2 1 C-0.9065804 4.78381795 -3.81515283 8.56608782 -6.7265625 12.34619141 C-7.78723659 13.72368494 -8.84687362 15.10197694 -9.90625 16.48046875 C-13.67819653 21.36442782 -17.56164282 26.14738155 -21.48046875 30.9140625 C-24.34538525 34.42303 -27.17508078 37.95882246 -30 41.5 C-33.4926096 45.87809853 -37.0027566 50.23858986 -40.5625 54.5625 C-45.81665761 60.9563462 -50.90633338 67.47820255 -56 74 C-56.33 72.68 -56.66 71.36 -57 70 C-56.34 70 -55.68 70 -55 70 C-54.731875 69.195625 -54.46375 68.39125 -54.1875 67.5625 C-53.5996875 66.2940625 -53.5996875 66.2940625 -53 65 C-51.515 64.505 -51.515 64.505 -50 64 C-48.93283296 62.20067421 -48.93283296 62.20067421 -48 60 C-45.83637966 55.98184794 -43.21453819 53.21453819 -40 50 C-39.31822584 48.67432801 -38.64808564 47.34246312 -38 46 C-37.01 45.34 -36.02 44.68 -35 44 C-34.67 43.01 -34.34 42.02 -34 41 C-32.0625 38.8125 -32.0625 38.8125 -30 37 C-29.34 37 -28.68 37 -28 37 C-27.34 35.35 -26.68 33.7 -26 32 C-25.34 32 -24.68 32 -24 32 C-23.7525 31.2575 -23.505 30.515 -23.25 29.75 C-21.88861048 26.75494305 -20.3426579 25.27166827 -18 23 C-16.96986723 21.35178756 -15.96885372 19.68496298 -15 18 C-13.4375 15.6875 -13.4375 15.6875 -12 14 C-11.34 14 -10.68 14 -10 14 C-9.67 13.01 -9.34 12.02 -9 11 C-8.34 11 -7.68 11 -7 11 C-7 10.01 -7 9.02 -7 8 C-6.34 8 -5.68 8 -5 8 C-5 7.01 -5 6.02 -5 5 C-4.34 5 -3.68 5 -3 5 C-3 3.68 -3 2.36 -3 1 C-2.01 0.67 -1.02 0.34 0 0 Z " fill="#16142A" transform="translate(329,304)"/>
<path d="M0 0 C0 3 0 3 -1.375 4.6875 C-3 6 -3 6 -5 6 C-5 6.99 -5 7.98 -5 9 C-7.70229115 10.35114557 -9.79448414 10.12283264 -12.82119751 10.12025452 C-14.06082748 10.12162918 -15.30045746 10.12300385 -16.57765198 10.12442017 C-17.95883203 10.12088079 -19.34001183 10.11724598 -20.72119141 10.11352539 C-22.16974384 10.11324344 -23.61829641 10.1134014 -25.06684875 10.1139679 C-29.00669976 10.11425557 -32.94652051 10.10836371 -36.88636446 10.10139394 C-41.00101348 10.09515538 -45.11566314 10.0945562 -49.23031616 10.09336853 C-57.02531067 10.0902567 -64.82029121 10.0820453 -72.61527956 10.07201904 C-81.48819026 10.06085331 -90.36110163 10.05534629 -99.23401761 10.05032361 C-117.48935301 10.03986257 -135.74467538 10.02226598 -154 10 C-154 9.67 -154 9.34 -154 9 C-105.16 8.67 -56.32 8.34 -6 8 C-5.67 6.35 -5.34 4.7 -5 3 C-3 1.75 -3 1.75 -1 1 C-0.67 0.67 -0.34 0.34 0 0 Z " fill="#503896" transform="translate(265,372)"/>
<path d="M0 0 C0.495 1.98 0.495 1.98 1 4 C-3.73820922 5.21310263 -8.34256714 5.13379425 -13.1965332 5.11352539 C-14.57288185 5.11374443 -14.57288185 5.11374443 -15.97703552 5.1139679 C-19.00164171 5.11327275 -22.02618586 5.10549897 -25.05078125 5.09765625 C-27.15113796 5.09579066 -29.25149511 5.09436742 -31.35185242 5.09336853 C-36.8739645 5.08955449 -42.39605019 5.07973368 -47.91815186 5.06866455 C-53.55545698 5.05842652 -59.19276638 5.05386578 -64.83007812 5.04882812 C-75.88673033 5.03811043 -86.94336297 5.02104735 -98 5 C-98 4.67 -98 4.34 -98 4 C-96.88801743 3.97716446 -95.77603485 3.95432892 -94.63035583 3.93080139 C-84.13982672 3.71481305 -73.64940004 3.4943429 -63.15905666 3.26950932 C-57.76615664 3.15406978 -52.3732331 3.04019742 -46.98022461 2.92993164 C-41.77357313 2.82341802 -36.56702472 2.71275506 -31.36052132 2.59924126 C-29.37629355 2.55670494 -27.39203339 2.51565191 -25.40774345 2.4761219 C-22.62386032 2.42040683 -19.84014008 2.3593707 -17.05639648 2.29711914 C-16.23999695 2.28201294 -15.42359741 2.26690674 -14.5824585 2.25134277 C-6.77133802 2.53982772 -6.77133802 2.53982772 0 0 Z " fill="#7759D2" transform="translate(258,376)"/>
<path d="M0 0 C0.66 0.33 1.32 0.66 2 1 C0.75509974 12.57927776 -9.9122191 23.04977687 -17 32 C-17.80050781 33.01964844 -18.60101563 34.03929687 -19.42578125 35.08984375 C-23.29970693 39.94038934 -27.00927072 44.2889449 -32 48 C-32.33 47.34 -32.66 46.68 -33 46 C-32.2575 45.505 -31.515 45.01 -30.75 44.5 C-27.73555344 41.75959403 -26.6315274 39.46097479 -24.9765625 35.828125 C-23.74264584 33.51823301 -22.16625179 32.41926841 -20 31 C-19.67 30.01 -19.34 29.02 -19 28 C-18.01 28 -17.02 28 -16 28 C-16.33 27.01 -16.66 26.02 -17 25 C-16.01 25 -15.02 25 -14 25 C-14 23.68 -14 22.36 -14 21 C-12.625 19.25 -12.625 19.25 -11 18 C-10.34 18 -9.68 18 -9 18 C-8.9175 17.05125 -8.835 16.1025 -8.75 15.125 C-8.5025 14.09375 -8.255 13.0625 -8 12 C-7.360625 11.690625 -6.72125 11.38125 -6.0625 11.0625 C-3.58438302 10.09143641 -3.58438302 10.09143641 -2.875 6.5625 C-2.441875 4.7990625 -2.441875 4.7990625 -2 3 C-1.34 2.01 -0.68 1.02 0 0 Z " fill="#201A36" transform="translate(424,340)"/>
<path d="M0 0 C0 0.99 0 1.98 0 3 C-1 4 -2 5 -3 6 C-3.71447643 8.10332891 -3.71447643 8.10332891 -4 10 C-4.66 10 -5.32 10 -6 10 C-6.020625 10.721875 -6.04125 11.44375 -6.0625 12.1875 C-7.12661162 15.37983487 -7.58413244 15.57683443 -10.3125 17.25 C-14.30728741 19.81284732 -15.36630902 22.60092717 -17.0390625 26.92578125 C-18.38984511 29.84149493 -20.40229974 31.18160982 -23 33 C-25.13349127 35.44723999 -26.9021384 37.83559252 -28.5625 40.625 C-29.88866988 42.81606327 -30.99713207 44.41439622 -33 46 C-33.99 46 -34.98 46 -36 46 C-36 46.66 -36 47.32 -36 48 C-36.66 47.67 -37.32 47.34 -38 47 C-36.88321917 45.3278148 -35.75633648 43.66237197 -34.625 42 C-33.68527344 40.6078125 -33.68527344 40.6078125 -32.7265625 39.1875 C-32.15679687 38.465625 -31.58703125 37.74375 -31 37 C-30.34 37 -29.68 37 -29 37 C-28.773125 36.46375 -28.54625 35.9275 -28.3125 35.375 C-26.3054879 31.74326382 -23.77164705 27.88582352 -20 26 C-19.71125 25.25234375 -19.4225 24.5046875 -19.125 23.734375 C-17.8487262 20.63232064 -16.25473507 18.72026122 -14 16.25 C-13.29875 15.47140625 -12.5975 14.6928125 -11.875 13.890625 C-10 12 -10 12 -8 11 C-7.0196645 9.26807395 -6.04143223 7.53481602 -5.0859375 5.7890625 C-3.69776247 3.50206911 -1.98855574 1.7754962 0 0 Z " fill="#3E2B74" transform="translate(333,288)"/>
<path d="M0 0 C0.33 0 0.66 0 1 0 C1 42.57 1 85.14 1 129 C-2 126 -2 126 -2.29296875 123.95703125 C-2.1953125 121.97135417 -2.09765625 119.98567708 -2 118 C-1.34 118 -0.68 118 0 118 C-0.00911329 117.17892226 -0.00911329 117.17892226 -0.01841068 116.3412571 C-0.16626705 102.98549038 -0.30791024 89.62967 -0.4429636 76.27376747 C-0.50846163 69.81480058 -0.57598464 63.35586829 -0.64819336 56.89697266 C-0.71785114 50.65950125 -0.78211403 44.4219951 -0.84269524 38.18442917 C-0.86670216 35.8090858 -0.89262674 33.43376098 -0.92053413 31.05846024 C-0.95939977 27.72210843 -0.99134021 24.38575476 -1.02172852 21.04931641 C-1.03467453 20.0753894 -1.04762054 19.1014624 -1.06095886 18.09802246 C-1.10748697 12.00084363 -0.73343718 6.05308442 0 0 Z " fill="#A587EA" transform="translate(174,196)"/>
<path d="M0 0 C0 4.35243435 -2.64470425 6.49881137 -5.375 9.625 C-5.88289063 10.223125 -6.39078125 10.82125 -6.9140625 11.4375 C-10.71335565 15.85667783 -10.71335565 15.85667783 -13 17 C-13.391875 17.66 -13.78375 18.32 -14.1875 19 C-19.08708659 27.10966056 -25.32815981 34.40163013 -33 40 C-33.66 40 -34.32 40 -35 40 C-35 39.34 -35 38.68 -35 38 C-33.51387585 36.81110068 -32.0271122 35.62297893 -30.53515625 34.44140625 C-28.27039708 32.31495298 -27.1858992 29.83298142 -26 27 C-25.01 27 -24.02 27 -23 27 C-22.67 25.35 -22.34 23.7 -22 22 C-21.34 22 -20.68 22 -20 22 C-19.9175 21.401875 -19.835 20.80375 -19.75 20.1875 C-18.78423221 17.37067727 -17.51131433 16.52200868 -15 15 C-14.34 15 -13.68 15 -13 15 C-12.95875 14.236875 -12.9175 13.47375 -12.875 12.6875 C-12 10 -12 10 -9.3125 8.625 C-8.219375 8.08875 -7.12625 7.5525 -6 7 C-3.81608273 4.80622306 -1.89137754 2.44805958 0 0 Z " fill="#6246BF" transform="translate(294,336)"/>
<path d="M0 0 C23.43 0 46.86 0 71 0 C70.67 0.66 70.34 1.32 70 2 C56.05766511 3.01826041 42.21306703 3.00415982 28.25 2.625 C27.42280457 2.60357941 26.59560913 2.58215881 25.74334717 2.56008911 C17.12034615 2.33020079 8.57264479 2.02385839 0 1 C0 0.67 0 0.34 0 0 Z " fill="#2F254C" transform="translate(320,383)"/>
<path d="M0 0 C0 2.62113708 -0.31292445 4.50935112 -1 7 C-0.01 7.66 0.98 8.32 2 9 C1.34 10.65 0.68 12.3 0 14 C-0.99 14 -1.98 14 -3 14 C-3.144375 14.61875 -3.28875 15.2375 -3.4375 15.875 C-4 18 -4 18 -5 20 C-5.66 20 -6.32 20 -7 20 C-7 20.66 -7 21.32 -7 22 C-7.66 22 -8.32 22 -9 22 C-9 22.99 -9 23.98 -9 25 C-11.5 27.1875 -11.5 27.1875 -14 29 C-14.66 28.67 -15.32 28.34 -16 28 C-15.48455373 24.18569761 -14.79433828 22.57938918 -12 20 C-10.9935725 18.33720673 -9.99414593 16.67016516 -9 15 C-7 12.1875 -7 12.1875 -5 10 C-4.01 10 -3.02 10 -2 10 C-2 9.34 -2 8.68 -2 8 C-2.66 8 -3.32 8 -4 8 C-3.50168276 4.31245243 -2.89932357 2.39509338 0 0 Z " fill="#2A2343" transform="translate(390,217)"/>
<path d="M0 0 C0.99 0.495 0.99 0.495 2 1 C4.47146214 14.7795672 3.1588521 29.89723387 2.5625 43.8125 C2.52334473 44.74956787 2.48418945 45.68663574 2.44384766 46.65209961 C2.40179199 47.53647705 2.35973633 48.42085449 2.31640625 49.33203125 C2.27974854 50.11296143 2.24309082 50.8938916 2.20532227 51.69848633 C1.98350769 54.18486684 1.53012018 56.56230962 1 59 C2.32 59.66 3.64 60.32 5 61 C3.35 61 1.7 61 0 61 C0 40.87 0 20.74 0 0 Z " fill="#9371E8" transform="translate(112,319)"/>
<path d="M0 0 C0.495 0.99 0.495 0.99 1 2 C0.34 2.99 -0.32 3.98 -1 5 C-1.66 5 -2.32 5 -3 5 C-3.66 6.65 -4.32 8.3 -5 10 C-36.02 10 -67.04 10 -99 10 C-99 9.67 -99 9.34 -99 9 C-52.965 8.505 -52.965 8.505 -6 8 C-5.34 6.35 -4.68 4.7 -4 3 C-1.875 1.1875 -1.875 1.1875 0 0 Z " fill="#45376B" transform="translate(398,373)"/>
<path d="M0 0 C0 2.85602507 -0.3622683 4.48384316 -1.3125 7.125 C-1.55613281 7.82882812 -1.79976563 8.53265625 -2.05078125 9.2578125 C-3 11 -3 11 -6 12 C-6.04125 12.886875 -6.0825 13.77375 -6.125 14.6875 C-7.33855291 19.28166459 -9.10804282 20.35346912 -13 23 C-13.99 23 -14.98 23 -16 23 C-16.268125 23.639375 -16.53625 24.27875 -16.8125 24.9375 C-18 27 -18 27 -21 28 C-21 27.01 -21 26.02 -21 25 C-20.34 25 -19.68 25 -19 25 C-18.773125 24.46375 -18.54625 23.9275 -18.3125 23.375 C-15.94340796 19.08807155 -13.07057819 15.7137188 -9 13 C-8.02221891 11.30517945 -7.04805985 9.60775019 -6.1171875 7.88671875 C-4.38850158 4.96729463 -2.23550301 2.54598954 0 0 Z " fill="#30264F" transform="translate(355,260)"/>
<path d="M0 0 C1 2 1 2 0.3125 5.0625 C-1 8 -1 8 -3.125 8.875 C-3.74375 8.91625 -4.3625 8.9575 -5 9 C-5.33 10.98 -5.66 12.96 -6 15 C-6.66 15 -7.32 15 -8 15 C-8.33 15.99 -8.66 16.98 -9 18 C-9.66 18 -10.32 18 -11 18 C-11 19.32 -11 20.64 -11 22 C-12.423125 22.3403125 -12.423125 22.3403125 -13.875 22.6875 C-17.19323388 23.69083714 -17.19323388 23.69083714 -18.375 26.625 C-18.58125 27.40875 -18.7875 28.1925 -19 29 C-19.99 29 -20.98 29 -22 29 C-19.21102868 23.76233856 -16.06613395 19.4811602 -12.125 15.0625 C-7.8538632 10.18509545 -3.79163412 5.2661585 0 0 Z " fill="#2F2258" transform="translate(421,343)"/>
<path d="M0 0 C15.84 0 31.68 0 48 0 C47 3 47 3 44.9375 4.1875 C44.298125 4.455625 43.65875 4.72375 43 5 C43 4.34 43 3.68 43 3 C42.01 3.33 41.02 3.66 40 4 C37.99738517 3.68275409 35.99767375 3.34700244 34 3 C31.72955148 2.95819657 29.45795378 2.95848313 27.1875 3 C25.12533699 3.03728204 23.06195989 3.04719794 21 3 C20.67 2.67 20.34 2.34 20 2 C18.51361008 1.84344973 17.02050873 1.74933057 15.52734375 1.68359375 C14.17866211 1.62075195 14.17866211 1.62075195 12.80273438 1.55664062 C11.85720703 1.51732422 10.91167969 1.47800781 9.9375 1.4375 C8.98810547 1.39431641 8.03871094 1.35113281 7.06054688 1.30664062 C4.70718647 1.20020724 2.35371646 1.09818992 0 1 C0 0.67 0 0.34 0 0 Z " fill="#6A4CCA" transform="translate(376,340)"/>
<path d="M0 0 C0 3.58351346 -0.75971843 4.32105732 -2.9375 7.0625 C-5.18339455 9.89484916 -5.18339455 9.89484916 -7 13 C-6.02417969 13.04898437 -5.04835938 13.09796875 -4.04296875 13.1484375 C-2.77066406 13.22320312 -1.49835938 13.29796875 -0.1875 13.375 C1.07707031 13.44460938 2.34164063 13.51421875 3.64453125 13.5859375 C7 14 7 14 10 16 C10 16.66 10 17.32 10 18 C11.32 18.33 12.64 18.66 14 19 C5.80433953 19.46196834 -1.06489475 18.6234035 -8 14 C-7.84036991 7.61479646 -4.21875117 4.33991635 0 0 Z " fill="#231F37" transform="translate(301,369)"/>
<path d="M0 0 C2.20805524 -0.0544452 4.41650554 -0.09299283 6.625 -0.125 C7.85476563 -0.14820313 9.08453125 -0.17140625 10.3515625 -0.1953125 C13.94316041 -0.0030428 16.66661175 0.69741444 20 2 C19.91227545 3.89666526 19.80408699 5.79238993 19.6875 7.6875 C19.62949219 8.74324219 19.57148438 9.79898438 19.51171875 10.88671875 C18.96217936 14.23009964 17.91325982 16.23526262 16 19 C15 16 15 16 15 14 C14.34 13.01 13.68 12.02 13 11 C13.6796875 8.73828125 13.6796875 8.73828125 14.875 6.3125 C15.26429688 5.50425781 15.65359375 4.69601563 16.0546875 3.86328125 C16.36664063 3.24839844 16.67859375 2.63351563 17 2 C15.94039063 2.02320313 14.88078125 2.04640625 13.7890625 2.0703125 C12.4010487 2.08906944 11.0130273 2.10726972 9.625 2.125 C8.57699219 2.15013672 8.57699219 2.15013672 7.5078125 2.17578125 C5.67102514 2.19344267 3.83398037 2.10303261 2 2 C1.34 1.34 0.68 0.68 0 0 Z " fill="#150F30" transform="translate(375,212)"/>
<path d="M0 0 C0.125 7.625 0.125 7.625 -1 11 C-1.99 11 -2.98 11 -4 11 C-4 11.66 -4 12.32 -4 13 C-4.66 13 -5.32 13 -6 13 C-6 12.34 -6 11.68 -6 11 C-6.66 11 -7.32 11 -8 11 C-8.28875 11.598125 -8.5775 12.19625 -8.875 12.8125 C-10 15 -10 15 -12 18 C-12.66 18 -13.32 18 -14 18 C-14.33 18.66 -14.66 19.32 -15 20 C-15 19.01 -15 18.02 -15 17 C-14.34 17 -13.68 17 -13 17 C-12.938125 16.29875 -12.87625 15.5975 -12.8125 14.875 C-11.69528762 10.92178696 -9.79812617 9.00286711 -7 6 C-6.34 5.67 -5.68 5.34 -5 5 C-4.67 4.34 -4.34 3.68 -4 3 C-3.00748537 1.01497074 -2.38353202 0 0 0 Z " fill="#2B2448" transform="translate(342,281)"/>
<path d="M0 0 C2 2 2 2 2.21118164 4.71801758 C2.19434326 5.84876709 2.17750488 6.9795166 2.16015625 8.14453125 C2.14919922 9.37880859 2.13824219 10.61308594 2.12695312 11.88476562 C2.10568359 13.18091797 2.08441406 14.47707031 2.0625 15.8125 C2.02797957 18.36061924 1.99785997 20.90880283 1.97265625 23.45703125 C1.95468994 24.59116455 1.93672363 25.72529785 1.91821289 26.89379883 C1.99312875 29.73903594 2.3853046 32.23158726 3 35 C2.9140625 37.0625 2.9140625 37.0625 2.625 39 C2.52574219 39.680625 2.42648438 40.36125 2.32421875 41.0625 C1.93520056 43.38723522 1.5037145 45.69730515 1 48 C0.67 48 0.34 48 0 48 C0 32.16 0 16.32 0 0 Z " fill="#AB8AEB" transform="translate(112,271)"/>
<path d="M0 0 C0.66 0 1.32 0 2 0 C2 0.66 2 1.32 2 2 C2.66 2 3.32 2 4 2 C4 1.34 4 0.68 4 0 C4.99 0.33 5.98 0.66 7 1 C5.64511694 2.8275867 4.26521513 4.63664377 2.875 6.4375 C1.72644531 7.95150391 1.72644531 7.95150391 0.5546875 9.49609375 C-2.36710276 12.35980561 -3.98312056 12.77295899 -8 13 C-8.33 14.32 -8.66 15.64 -9 17 C-10 15 -10 15 -9.0625 11.875 C-8.711875 10.92625 -8.36125 9.9775 -8 9 C-7.34 9 -6.68 9 -6 9 C-6 8.34 -6 7.68 -6 7 C-4.3545622 5.31237149 -2.68711423 3.6459651 -1 2 C-0.67 1.34 -0.34 0.68 0 0 Z " fill="#231F37" transform="translate(334,292)"/>
<path d="M0 0 C0.33 0 0.66 0 1 0 C1.01030746 0.8054425 1.02061493 1.61088501 1.03123474 2.44073486 C1.12923237 10.03309169 1.23175005 17.62536767 1.33933926 25.21759415 C1.39449193 29.1207832 1.44789956 33.02397985 1.49731445 36.92724609 C1.5450711 40.69444955 1.59741776 44.46156387 1.65294075 48.22866058 C1.67331317 49.66553272 1.69203457 51.10242926 1.70907402 52.53934479 C1.7332312 54.55265433 1.76381483 56.56588365 1.79467773 58.57910156 C1.81022202 59.72493713 1.8257663 60.87077271 1.84178162 62.05133057 C2.01397167 65.61789628 2.01397167 65.61789628 3 69 C3.99 69.33 4.98 69.66 6 70 C4.02 70 2.04 70 0 70 C0 46.9 0 23.8 0 0 Z " fill="#2A2055" transform="translate(177,255)"/>
<path d="M0 0 C0.66 0 1.32 0 2 0 C0.18690997 3.77727089 -1.9073259 7.37269822 -4 11 C-3.34 11.33 -2.68 11.66 -2 12 C-5.35391725 16.20680342 -8.2433757 19.35743095 -13 22 C-13.66 22.99 -14.32 23.98 -15 25 C-15.66 24.67 -16.32 24.34 -17 24 C-15.76302083 22.60026042 -14.52604167 21.20052083 -13.2890625 19.80078125 C-11.89285598 18.01579572 -11.89285598 18.01579572 -11.1484375 15.71875 C-9.61820583 12.09616075 -7.40809929 9.27330723 -5 6.1875 C-4.54882812 5.59001953 -4.09765625 4.99253906 -3.6328125 4.37695312 C-2.47362397 2.87652419 -1.24186081 1.43275496 0 0 Z " fill="#6248AC" transform="translate(246,293)"/>
<path d="M0 0 C0.66 0.33 1.32 0.66 2 1 C-0.27834762 7.45531827 -3.91739349 12.43868646 -9 17 C-9.99 17.33 -10.98 17.66 -12 18 C-13.70586575 19.62652316 -15.3777546 21.29006566 -17 23 C-15.23797795 18.84370094 -12.42213477 15.55523802 -9.625 12.0625 C-9.14289063 11.45470703 -8.66078125 10.84691406 -8.1640625 10.22070312 C-6.77990614 8.47734314 -5.39096037 6.73793395 -4 5 C-3.22398437 4.02933594 -2.44796875 3.05867187 -1.6484375 2.05859375 C-0.83246094 1.03958984 -0.83246094 1.03958984 0 0 Z " fill="#694FA5" transform="translate(310,214)"/>
<path d="M0 0 C0.495 1.98 0.495 1.98 1 4 C-18.47 4 -37.94 4 -58 4 C-58 3.67 -58 3.34 -58 3 C-57.08371071 2.9845388 -57.08371071 2.9845388 -56.14891052 2.96876526 C-49.77324532 2.86032412 -43.39771075 2.74575838 -37.0222168 2.62768555 C-34.64496604 2.58445692 -32.26768665 2.54277364 -29.89038086 2.50268555 C-26.4671975 2.44468976 -23.04415666 2.38108046 -19.62109375 2.31640625 C-18.56353378 2.29969376 -17.50597382 2.28298126 -16.41636658 2.26576233 C-7.69442496 2.7140884 -7.69442496 2.7140884 0 0 Z " fill="#7450E7" transform="translate(258,376)"/>
<path d="M0 0 C0 3.73651504 -0.9755848 4.53973643 -3.3125 7.375 C-6.08786123 10.74752905 -6.08786123 10.74752905 -8.04882812 14.61645508 C-10 17 -10 17 -11.81376648 17.43774414 C-14.23815057 17.58095968 -16.61536113 17.56117277 -19.04296875 17.48828125 C-19.9265657 17.48120651 -20.81016266 17.47413177 -21.72053528 17.46684265 C-24.54371691 17.43884526 -27.36491759 17.3760987 -30.1875 17.3125 C-32.10088282 17.28742396 -34.01429672 17.26460958 -35.92773438 17.24414062 C-40.61925327 17.18900123 -45.30929077 17.1026932 -50 17 C-50 16.67 -50 16.34 -50 16 C-48.38158203 16.02525757 -48.38158203 16.02525757 -46.73046875 16.05102539 C-42.69685785 16.10196257 -38.66513499 16.09320454 -34.63134766 16.06713867 C-32.89139278 16.06407139 -31.15133073 16.0768286 -29.41162109 16.10620117 C-19.2824874 16.56421037 -19.2824874 16.56421037 -10.1328125 13.05053711 C-8.12251575 10.79378571 -6.55778994 8.58230236 -5 6 C-4.02005716 4.79589524 -3.02240554 3.60576502 -2 2.4375 C-1.34 1.633125 -0.68 0.82875 0 0 Z " fill="#32226B" transform="translate(234,309)"/>
<path d="M0 0 C0.33 0.66 0.66 1.32 1 2 C1.66 2 2.32 2 3 2 C3 2.66 3 3.32 3 4 C2.01 4 1.02 4 0 4 C-0.268125 4.598125 -0.53625 5.19625 -0.8125 5.8125 C-2.00572423 8.01054464 -3.24678871 9.24678871 -5 11 C-5.37125 11.763125 -5.7425 12.52625 -6.125 13.3125 C-8.92994133 17.33291591 -12.86030457 19.47452543 -17 22 C-15.69015982 19.07804882 -14.29877849 17.20252422 -12 15 C-10.8563891 13.57726132 -9.73262088 12.13843323 -8.625 10.6875 C-5.82742861 7.05243909 -2.96266807 3.50133499 0 0 Z " fill="#3F2D6D" transform="translate(385,223)"/>
<path d="M0 0 C0.33 0.33 0.66 0.66 1 1 C3.30614082 1.07578511 5.61458066 1.08303463 7.921875 1.0625 C8.61887512 1.05871338 9.31587524 1.05492676 10.03399658 1.05102539 C13.02468975 1.03464948 16.01524797 1.00667956 19.00585938 0.97949219 C21.18619142 0.96133868 23.36650066 0.94928073 25.546875 0.9375 C27.50898926 0.92009766 27.50898926 0.92009766 29.51074219 0.90234375 C32.49789444 0.98594723 35.10719595 1.29450578 38 2 C38 2.33 38 2.66 38 3 C23.15 3 8.3 3 -7 3 C-7 2.01 -7 1.02 -7 0 C-3.86350275 -1.04549908 -3.0051095 -1.00170317 0 0 Z " fill="#C9BAEE" transform="translate(302,378)"/>
<path d="M0 0 C1.4540625 0.0309375 1.4540625 0.0309375 2.9375 0.0625 C2.11958984 0.39507812 2.11958984 0.39507812 1.28515625 0.734375 C-1.80467931 2.48236849 -4.14394282 4.81470154 -6.625 7.3125 C-7.10646484 7.77785156 -7.58792969 8.24320312 -8.08398438 8.72265625 C-11.26659451 11.90088865 -13.1903801 14.99960149 -15.0625 19.0625 C-17.0625 21.4375 -17.0625 21.4375 -19.0625 23.0625 C-20.0525 23.0625 -21.0425 23.0625 -22.0625 23.0625 C-20.37062349 19.01584799 -17.5788294 15.91215236 -14.75 12.625 C-14.27626953 12.06490234 -13.80253906 11.50480469 -13.31445312 10.92773438 C-10.37392806 7.48036094 -7.30914963 4.22870167 -4.0625 1.0625 C-3.0625 0.0625 -3.0625 0.0625 0 0 Z " fill="#BAABE0" transform="translate(330.0625,340.9375)"/>
<path d="M0 0 C0.66 0 1.32 0 2 0 C0.97859912 5.37640175 -1.8281337 9.5074623 -6 13 C-10.04276804 14.07667351 -13.79035202 13.86368952 -17.9375 13.5625 C-19.00291016 13.52189453 -20.06832031 13.48128906 -21.16601562 13.43945312 C-23.78210872 13.33387089 -26.38863412 13.18645783 -29 13 C-25.40397695 11.03954376 -22.99193269 10.81105858 -18.875 10.9375 C-14.78194631 11.19150196 -14.78194631 11.19150196 -11 10 C-9.79923828 9.86271484 -9.79923828 9.86271484 -8.57421875 9.72265625 C-5.18062485 8.76997815 -4.56116224 7.43319752 -2.8125 4.4375 C-1.92119694 2.93004548 -0.99348742 1.44215915 0 0 Z " fill="#8162E4" transform="translate(397,368)"/>
<path d="M0 0 C0 3.48026328 -1.16307192 5.23467725 -2.92578125 8.16015625 C-4.1520017 10.19279146 -4.1520017 10.19279146 -5.5 13.25 C-7.99410583 17.82252736 -11.21391562 19.27169175 -16 21 C-14.41660944 17.39291777 -12.20193384 14.64232061 -9.6875 11.625 C-8.88828125 10.66207031 -8.0890625 9.69914062 -7.265625 8.70703125 C-6.51796875 7.81371094 -5.7703125 6.92039063 -5 6 C-4.15695312 4.98486328 -4.15695312 4.98486328 -3.296875 3.94921875 C-2.20123813 2.63004678 -1.10129656 1.31445073 0 0 Z " fill="#5B439D" transform="translate(283,248)"/>
<path d="M0 0 C0 0.99 0 1.98 0 3 C-1 4 -2 5 -3 6 C-3.71447643 8.10332891 -3.71447643 8.10332891 -4 10 C-4.66 10 -5.32 10 -6 10 C-6 10.70125 -6 11.4025 -6 12.125 C-7.56394292 16.6213359 -11.1732907 18.40152949 -15 21 C-16.33803283 21.99370314 -17.6727757 22.99190604 -19 24 C-17.56951306 20.81716656 -15.80982757 18.42084342 -13.5 15.8125 C-12.8915625 15.11769531 -12.283125 14.42289062 -11.65625 13.70703125 C-10 12 -10 12 -8 11 C-7.0196645 9.26807395 -6.04143223 7.53481602 -5.0859375 5.7890625 C-3.69776247 3.50206911 -1.98855574 1.7754962 0 0 Z " fill="#473388" transform="translate(333,288)"/>
<path d="M0 0 C0.33 0.66 0.66 1.32 1 2 C-9.04912451 13.98297665 -9.04912451 13.98297665 -14 16 C-14.33 15.34 -14.66 14.68 -15 14 C-14.071875 13.29875 -13.14375 12.5975 -12.1875 11.875 C-9.09904705 9.32684378 -7.55573813 6.71648553 -6 3 C-5.01 3 -4.02 3 -3 3 C-3 2.34 -3 1.68 -3 1 C-2.01 0.67 -1.02 0.34 0 0 Z " fill="#6546C9" transform="translate(274,360)"/>
<path d="M0 0 C1 2 1 2 0.3125 4.5 C-1 7 -1 7 -2.890625 7.921875 C-5.37597349 9.19216423 -6.42981446 10.5034247 -8.0625 12.75 C-8.57683594 13.45769531 -9.09117187 14.16539062 -9.62109375 14.89453125 C-11.16792009 17.15090207 -11.16792009 17.15090207 -12.625 20.4375 C-14 23 -14 23 -16.1875 23.875 C-16.785625 23.91625 -17.38375 23.9575 -18 24 C-16.24363556 19.8710029 -13.46503188 16.59968132 -10.6875 13.125 C-10.21376953 12.52558594 -9.74003906 11.92617188 -9.25195312 11.30859375 C-6.22469444 7.49035502 -3.13282608 3.73200047 0 0 Z " fill="#44307F" transform="translate(266,269)"/>
<path d="M0 0 C0.99 0.33 1.98 0.66 3 1 C1.10981419 3.25495851 -0.78680514 5.50392683 -2.6875 7.75 C-3.21794922 8.38421875 -3.74839844 9.0184375 -4.29492188 9.671875 C-7.28925908 13.19894705 -10.24704545 16.24272727 -14 19 C-14.33 18.34 -14.66 17.68 -15 17 C-14.2575 16.505 -13.515 16.01 -12.75 15.5 C-9.7382328 12.76202982 -8.63879335 10.46217421 -6.97265625 6.83984375 C-5.72675096 4.48313134 -4.34353979 3.24988789 -2 2 C-1.34 2 -0.68 2 0 2 C0 1.34 0 0.68 0 0 Z " fill="#181429" transform="translate(406,369)"/>
<path d="M0 0 C0.99 0.495 0.99 0.495 2 1 C2.44921875 3.8359375 2.44921875 3.8359375 2.6875 7.375 C2.77386719 8.53773438 2.86023438 9.70046875 2.94921875 10.8984375 C3 14 3 14 2 17 C1.77202438 19.73289293 1.58331813 22.45042204 1.4375 25.1875 C1.39431641 25.93708984 1.35113281 26.68667969 1.30664062 27.45898438 C1.20077315 29.30578375 1.0999024 31.15286834 1 33 C0.67 33 0.34 33 0 33 C0 22.11 0 11.22 0 0 Z " fill="#9E7CE5" transform="translate(112,319)"/>
<path d="M0 0 C-1 2 -1 2 -3.75 4.0625 C-7.7497343 7.2700164 -9.76810205 11.46707452 -12 16 C-13.32 15.67 -14.64 15.34 -16 15 C-15.34 15 -14.68 15 -14 15 C-13.9071875 13.63875 -13.9071875 13.63875 -13.8125 12.25 C-12.78854432 8.15417729 -11.39634027 7.3928761 -8 5 C-7.13375 4.0925 -6.2675 3.185 -5.375 2.25 C-3 0 -3 0 0 0 Z " fill="#8966EC" transform="translate(239,312)"/>
<path d="M0 0 C0.66 0.33 1.32 0.66 2 1 C1.51539656 6.12295063 -0.12948494 9.18497849 -3.0625 13.375 C-3.79597656 14.43460937 -4.52945312 15.49421875 -5.28515625 16.5859375 C-5.85105469 17.38257813 -6.41695313 18.17921875 -7 19 C-7.33 18.01 -7.66 17.02 -8 16 C-6.6772113 13.99301025 -5.34216975 11.99408077 -4 10 C-3.29187186 7.67891331 -2.61975848 5.34622853 -2 3 C-1.34 2.01 -0.68 1.02 0 0 Z " fill="#181032" transform="translate(424,340)"/>
<path d="M0 0 C0.99 0 1.98 0 3 0 C1.40212025 3.64247857 -0.84792042 6.44399679 -3.375 9.5 C-4.14585937 10.4384375 -4.91671875 11.376875 -5.7109375 12.34375 C-7.72066066 14.67585196 -9.78927778 16.85994014 -12 19 C-12.25 16.6875 -12.25 16.6875 -12 14 C-9.95575462 12.02389614 -8.8823175 11 -6 11 C-6 10.01 -6 9.02 -6 8 C-5.34 8 -4.68 8 -4 8 C-4 7.34 -4 6.68 -4 6 C-3.34 6 -2.68 6 -2 6 C-1.34 4.02 -0.68 2.04 0 0 Z " fill="#151326" transform="translate(387,231)"/>
<path d="M0 0 C0.33 0.66 0.66 1.32 1 2 C0.01 3.485 0.01 3.485 -1 5 C-1.66 5 -2.32 5 -3 5 C-3.66 6.65 -4.32 8.3 -5 10 C-11.93 10 -18.86 10 -26 10 C-26 9.67 -26 9.34 -26 9 C-16.1 8.505 -16.1 8.505 -6 8 C-5.34 6.35 -4.68 4.7 -4 3 C-1.875 1.1875 -1.875 1.1875 0 0 Z " fill="#3F2E76" transform="translate(398,373)"/>
<path d="M0 0 C0.99 0.33 1.98 0.66 3 1 C2.20994338 2.43838552 1.41788955 3.87567415 0.625 5.3125 C0.18414062 6.11300781 -0.25671875 6.91351563 -0.7109375 7.73828125 C-1.73513335 9.53527943 -2.85267138 11.27900708 -4 13 C-4.66 12.67 -5.32 12.34 -6 12 C-5.38144369 10.3725363 -4.75492695 8.74809644 -4.125 7.125 C-3.77695312 6.22007812 -3.42890625 5.31515625 -3.0703125 4.3828125 C-2 2 -2 2 0 0 Z M-8 13 C-7.34 13.33 -6.68 13.66 -6 14 C-6.99 14.99 -7.98 15.98 -9 17 C-8.67 15.68 -8.34 14.36 -8 13 Z " fill="#8F70E8" transform="translate(269,267)"/>
<path d="M0 0 C10.56 0 21.12 0 32 0 C32 0.99 32 1.98 32 3 C31.01 3.33 30.02 3.66 29 4 C29 3.01 29 2.02 29 1 C19.43 1 9.86 1 0 1 C0 0.67 0 0.34 0 0 Z " fill="#856ECA" transform="translate(360,214)"/>
<path d="M0 0 C0 0.66 0 1.32 0 2 C-0.99 2 -1.98 2 -3 2 C-3.0825 2.61875 -3.165 3.2375 -3.25 3.875 C-3.4975 4.57625 -3.745 5.2775 -4 6 C-4.639375 6.28875 -5.27875 6.5775 -5.9375 6.875 C-8.32797148 7.89342457 -8.32797148 7.89342457 -9.1875 11 C-9.5896875 12.485 -9.5896875 12.485 -10 14 C-10.33 14.66 -10.66 15.32 -11 16 C-11.99 16 -12.98 16 -14 16 C-13.41693646 12.61823149 -12.401521 11.36168535 -10 9 C-8.42628291 6.94175424 -6.91587401 4.84495474 -5.40234375 2.7421875 C-3.68082566 0.603477 -2.75755969 0 0 0 Z " fill="#2B214E" transform="translate(408,366)"/>
<path d="M0 0 C2.97 0 5.94 0 9 0 C9 0.66 9 1.32 9 2 C11.31 2.66 13.62 3.32 16 4 C16 4.66 16 5.32 16 6 C10.03435204 5.49228528 5.36190101 3.61407872 0 1 C0 0.67 0 0.34 0 0 Z " fill="#19103A" transform="translate(111,382)"/>
<path d="M0 0 C0 3.51393026 -0.4419771 3.80486682 -2.75 6.25 C-5.77811134 9.61536544 -7.88117791 13.00683529 -10 17 C-10.66 16.67 -11.32 16.34 -12 16 C-8.84732701 9.82601539 -4.71993196 5.05216018 0 0 Z " fill="#47318E" transform="translate(411,356)"/>
<path d="M0 0 C0.33 0.66 0.66 1.32 1 2 C0.16855469 3.10408203 0.16855469 3.10408203 -0.6796875 4.23046875 C-1.76636719 5.69419922 -1.76636719 5.69419922 -2.875 7.1875 C-3.59429687 8.15042969 -4.31359375 9.11335938 -5.0546875 10.10546875 C-6.80596599 12.71128675 -7.97459794 15.04792144 -9 18 C-9.33 18 -9.66 18 -10 18 C-10.32097025 14.41238087 -10.39162216 12.57103975 -8.3203125 9.55078125 C-7.59585937 8.81214844 -6.87140625 8.07351563 -6.125 7.3125 C-3.80558105 4.90579109 -1.86150817 2.79226226 0 0 Z " fill="#31245F" transform="translate(292,340)"/>
<path d="M0 0 C1.13643966 3.40931897 0.86747764 4.00335456 -0.4375 7.1875 C-0.72496094 7.90292969 -1.01242188 8.61835938 -1.30859375 9.35546875 C-1.53675781 9.89816406 -1.76492187 10.44085938 -2 11 C-2.99 11 -3.98 11 -5 11 C-5 6.15218618 -3.13536449 3.64106844 0 0 Z " fill="#8767E0" transform="translate(247,295)"/>
<path d="M0 0 C1.32 0 2.64 0 4 0 C2.34627709 3.90879961 -0.30176354 6.76211625 -3 10 C-4.27852287 12.21587348 -4.27852287 12.21587348 -5 14 C-6.24546405 11.50907189 -5.7767578 10.58919267 -5 8 C-4.34 8 -3.68 8 -3 8 C-3 6.35 -3 4.7 -3 3 C-2.01 3 -1.02 3 0 3 C0 2.01 0 1.02 0 0 Z " fill="#795BD8" transform="translate(330,286)"/>
<path d="M0 0 C0 4.13781054 -1.71509607 5.20919996 -4.5 8.1875 C-5.3353125 9.08855469 -6.170625 9.98960937 -7.03125 10.91796875 C-7.6809375 11.60503906 -8.330625 12.29210937 -9 13 C-9 9.88772805 -8.54372951 7.05847848 -8 4 C-7.236875 3.896875 -6.47375 3.79375 -5.6875 3.6875 C-2.82940576 2.95635961 -1.84257115 2.23048087 0 0 Z " fill="#684EB0" transform="translate(366,247)"/>
<path d="M0 0 C1 2 1 2 0.4375 4.875 C-1.60524454 9.315749 -4.74434975 10.87217487 -9 13 C-7.50923566 9.7173068 -5.61379679 7.06922559 -3.375 4.25 C-2.74335938 3.45078125 -2.11171875 2.6515625 -1.4609375 1.828125 C-0.97882813 1.22484375 -0.49671875 0.6215625 0 0 Z " fill="#3B287A" transform="translate(421,343)"/>
<path d="M0 0 C1.40217391 5.19565217 1.40217391 5.19565217 0 8 C-2.9375 9.1875 -2.9375 9.1875 -6 10 C-6.99 10.495 -6.99 10.495 -8 11 C-6.63629701 8.00779732 -5.05091917 5.70973471 -2.875 3.25 C-2.33617187 2.63640625 -1.79734375 2.0228125 -1.2421875 1.390625 C-0.62730469 0.70226562 -0.62730469 0.70226562 0 0 Z " fill="#654CA0" transform="translate(292,237)"/>
<path d="M0 0 C2.64 0 5.28 0 8 0 C7.45276317 3.37462715 6.9451 5.08235 5 8 C4.34 8 3.68 8 3 8 C3.33 5.69 3.66 3.38 4 1 C2.68 0.67 1.36 0.34 0 0 Z " fill="#8F71E5" transform="translate(381,215)"/>
<path d="M0 0 C0.6796875 1.734375 0.6796875 1.734375 1 4 C-0.1796875 6.140625 -0.1796875 6.140625 -1.875 8.25 C-2.42929687 8.95640625 -2.98359375 9.6628125 -3.5546875 10.390625 C-4.03164063 10.92171875 -4.50859375 11.4528125 -5 12 C-5.33 12 -5.66 12 -6 12 C-6.4025937 8.47730515 -6.13372795 7.20059192 -4.125 4.1875 C-3.073125 3.1046875 -3.073125 3.1046875 -2 2 C-1.34 2 -0.68 2 0 2 C0 1.34 0 0.68 0 0 Z " fill="#8867E2" transform="translate(357,253)"/>
<path d="M0 0 C0.33 0.66 0.66 1.32 1 2 C-0.76227632 5.61730402 -2.64326421 7.80075931 -6 10 C-5.58578031 5.16743695 -3.53586014 3.17320782 0 0 Z " fill="#2E2353" transform="translate(269,370)"/>
<path d="M0 0 C1 3 1 3 -0.25 5.6875 C-0.8275 6.450625 -1.405 7.21375 -2 8 C-2.99 8 -3.98 8 -5 8 C-5.33 8.99 -5.66 9.98 -6 11 C-6.66 10.67 -7.32 10.34 -8 10 C-5.36 6.7 -2.72 3.4 0 0 Z " fill="#8C71D9" transform="translate(287,245)"/>
<path d="M0 0 C0 3.37610023 -0.40618198 5.02970278 -2 8 C-5.125 10.3125 -5.125 10.3125 -8 12 C-6.59023295 8.96147295 -4.91129772 6.4060405 -2.875 3.75 C-2.06675781 2.69039063 -2.06675781 2.69039063 -1.2421875 1.609375 C-0.83226562 1.07828125 -0.42234375 0.5471875 0 0 Z " fill="#4D3982" transform="translate(355,260)"/>
<path d="M0 0 C0.33 0 0.66 0 1 0 C1 2.97 1 5.94 1 9 C2.65 9.33 4.3 9.66 6 10 C6 10.99 6 11.98 6 13 C3.03 12.505 3.03 12.505 0 12 C0 8.04 0 4.08 0 0 Z " fill="#0D0B1D" transform="translate(177,112)"/>
<path d="M0 0 C0.66 0 1.32 0 2 0 C0.65365543 4.4062186 -1.19374374 6.43077702 -5 9 C-5.66 9 -6.32 9 -7 9 C-7 8.34 -7 7.68 -7 7 C-5.01739574 5.31267723 -3.0167658 3.64633943 -1 2 C-0.67 1.34 -0.34 0.68 0 0 Z " fill="#6E4CE2" transform="translate(266,367)"/>
<path d="M0 0 C0.33 0 0.66 0 1 0 C1.66 3.96 2.32 7.92 3 12 C3.99 12.33 4.98 12.66 6 13 C4.02 13 2.04 13 0 13 C0 8.71 0 4.42 0 0 Z " fill="#30225E" transform="translate(177,312)"/>
<path d="M0 0 C1 3 1 3 0 6 C-3.5625 7.1875 -3.5625 7.1875 -7 8 C-6.54625 7.5875 -6.0925 7.175 -5.625 6.75 C-3.9085616 5.06583565 -3.9085616 5.06583565 -2.9375 2.875 C-2 1 -2 1 0 0 Z " fill="#302254" transform="translate(341,281)"/>
<path d="M0 0 C1 2 1 2 0.5 4.375 C-1.64025582 8.12044768 -4.17153891 9.08576945 -8 11 C-6.69108934 8.08012238 -5.29493021 6.203133 -3 4 C-1.98199424 2.68036291 -0.97751635 1.34990354 0 0 Z " fill="#503C8C" transform="translate(376,234)"/>
<path d="M0 0 C0 3 0 3 -1.375 4.6875 C-3 6 -3 6 -5 6 C-5 6.99 -5 7.98 -5 9 C-6.98 9 -8.96 9 -11 9 C-11 8.67 -11 8.34 -11 8 C-9.35 8 -7.7 8 -6 8 C-5.9175 7.21625 -5.835 6.4325 -5.75 5.625 C-5 3 -5 3 -3 1.75 C-2.34 1.5025 -1.68 1.255 -1 1 C-0.67 0.67 -0.34 0.34 0 0 Z " fill="#5B41B1" transform="translate(265,372)"/>
<path d="M0 0 C0.66 0.33 1.32 0.66 2 1 C-0.64 4.3 -3.28 7.6 -6 11 C-6.33 10.34 -6.66 9.68 -7 9 C-5.34090818 4.89593075 -3.78295966 2.34804392 0 0 Z " fill="#15172A" transform="translate(363,262)"/>
<path d="M0 0 C0.33 0.99 0.66 1.98 1 3 C-0.8125 5 -0.8125 5 -3 7 C-3.99 7 -4.98 7 -6 7 C-4.77065985 3.31197956 -3.06140622 2.27643027 0 0 Z " fill="#8261E8" transform="translate(337,279)"/>
<path d="M0 0 C0.99 0.66 1.98 1.32 3 2 C1.02 4.97 -0.96 7.94 -3 11 C-3 8.04725901 -2.56108169 6.50941597 -1.5 3.8125 C-1.2215625 3.09707031 -0.943125 2.38164062 -0.65625 1.64453125 C-0.33140625 0.83048828 -0.33140625 0.83048828 0 0 Z " fill="#795ACD" transform="translate(348,264)"/>
<path d="M0 0 C0.928125 0.0825 1.85625 0.165 2.8125 0.25 C2.22984375 0.51554687 1.6471875 0.78109375 1.046875 1.0546875 C-1.24924228 2.28302996 -2.99106018 3.65314939 -4.9375 5.375 C-5.55109375 5.91382813 -6.1646875 6.45265625 -6.796875 7.0078125 C-7.25578125 7.41773438 -7.7146875 7.82765625 -8.1875 8.25 C-4.26293288 0.33434768 -4.26293288 0.33434768 0 0 Z " fill="#C1ACF2" transform="translate(330.1875,340.75)"/>
<path d="M0 0 C-0.33 1.32 -0.66 2.64 -1 4 C-2.98 4.33 -4.96 4.66 -7 5 C-2.25 0 -2.25 0 0 0 Z " fill="#2E2356" transform="translate(325,304)"/>
<path d="M0 0 C0.33 0.99 0.66 1.98 1 3 C-0.98 4.98 -2.96 6.96 -5 9 C-5.66 8.67 -6.32 8.34 -7 8 C-4.69 5.36 -2.38 2.72 0 0 Z " fill="#B5A3DC" transform="translate(321,347)"/>
<path d="M0 0 C0.66 0.33 1.32 0.66 2 1 C0.02 3.31 -1.96 5.62 -4 8 C-4.33 7.01 -4.66 6.02 -5 5 C-3.35 3.35 -1.7 1.7 0 0 Z " fill="#131327" transform="translate(270,378)"/>
<path d="M0 0 C0.99 0 1.98 0 3 0 C1.63016497 3.16115776 1.0109362 3.9927092 -2 6 C-1.125 1.125 -1.125 1.125 0 0 Z " fill="#7554E2" transform="translate(283,345)"/>
<path d="M0 0 C0.66 0 1.32 0 2 0 C1.34 2.31 0.68 4.62 0 7 C-0.66 7 -1.32 7 -2 7 C-1.125 2.25 -1.125 2.25 0 0 Z " fill="#7354D3" transform="translate(313,308)"/>
<path d="M0 0 C0 3.13751221 -0.35179805 4.39757586 -2 7 C-2.99 7.33 -3.98 7.66 -5 8 C-5 7.01 -5 6.02 -5 5 C-4.34 5 -3.68 5 -3 5 C-2.5359375 4.0409375 -2.5359375 4.0409375 -2.0625 3.0625 C-1 1 -1 1 0 0 Z " fill="#523B93" transform="translate(339,280)"/>
<path d="M0 0 C0.99 0.33 1.98 0.66 3 1 C1.35 2.65 -0.3 4.3 -2 6 C-2.66 5.67 -3.32 5.34 -4 5 C-2.68 3.35 -1.36 1.7 0 0 Z " fill="#876BD7" transform="translate(262,276)"/>
<path d="M0 0 C0.33 0.99 0.66 1.98 1 3 C-1.475 4.485 -1.475 4.485 -4 6 C-4 5.01 -4 4.02 -4 3 C-2 1.3125 -2 1.3125 0 0 Z " fill="#463481" transform="translate(345,274)"/>
<path d="M0 0 C0.66 0 1.32 0 2 0 C2 2.31 2 4.62 2 7 C1.67 6.34 1.34 5.68 1 5 C0.01 4.67 -0.98 4.34 -2 4 C-1.34 2.68 -0.68 1.36 0 0 Z " fill="#0B0C1F" transform="translate(392,219)"/>
<path d="M0 0 C0.66 0.33 1.32 0.66 2 1 C1.34 2.65 0.68 4.3 0 6 C-0.99 6 -1.98 6 -3 6 C-1.125 1.125 -1.125 1.125 0 0 Z " fill="#6D57AA" transform="translate(310,214)"/>
</svg>
